<svg width="14" height="14" viewBox="0 0 14 14" fill="none" xmlns="http://www.w3.org/2000/svg">
<path d="M2.5998 5.0749H3.5623M3.5623 5.0749C3.81758 5.0749 4.06239 5.17631 4.2429 5.35681C4.4234 5.53732 4.52481 5.78213 4.52481 6.0374C4.52481 6.29267 4.4234 6.53749 4.2429 6.71799C4.06239 6.8985 3.81758 6.9999 3.5623 6.9999H2.0498M3.5623 5.0749C3.81758 5.0749 4.06239 4.9735 4.2429 4.79299C4.4234 4.61249 4.52481 4.36767 4.52481 4.1124C4.52481 3.85713 4.4234 3.61232 4.2429 3.43181C4.06239 3.25131 3.81758 3.1499 3.5623 3.1499H2.0498" stroke="#0D6EFD" stroke-width="0.8" stroke-linecap="round" stroke-linejoin="round"/>
<path d="M12.2799 8.97998C12.2799 10.344 10.3403 11.4663 7.85227 11.6055M2.37988 8.97998C2.37988 10.3188 4.24833 11.4246 6.66988 11.5967L4.68988 12.94M6.66988 11.62L5.34988 9.77198" stroke="#0D6EFD" stroke-width="0.8" stroke-linecap="round" stroke-linejoin="round"/>
<path d="M8.0999 3.1499H7.5499C7.1123 3.1499 6.69261 3.32374 6.38318 3.63318C6.07374 3.94261 5.8999 4.3623 5.8999 4.7999V5.8999M5.8999 5.8999C5.8999 6.19164 6.0158 6.47143 6.22209 6.67772C6.42838 6.88401 6.70816 6.9999 6.9999 6.9999H7.2749C7.56664 6.9999 7.84643 6.88401 8.05272 6.67772C8.25901 6.47143 8.3749 6.19164 8.3749 5.8999V5.6249C8.3749 5.33316 8.25901 5.05338 8.05272 4.84709C7.84643 4.6408 7.56664 4.5249 7.2749 4.5249H6.9999C6.70816 4.5249 6.42838 4.6408 6.22209 4.84709C6.0158 5.05338 5.8999 5.33316 5.8999 5.6249V5.8999Z" stroke="#0D6EFD" stroke-width="0.8" stroke-linecap="round" stroke-linejoin="round"/>
<path d="M9.75 5.0749V4.2499C9.75 3.95816 9.86589 3.67837 10.0722 3.47208C10.2785 3.26579 10.5583 3.1499 10.85 3.1499H11.125C11.4167 3.1499 11.6965 3.26579 11.9028 3.47208C12.1091 3.67837 12.225 3.95816 12.225 4.2499V5.8999C12.225 6.19164 12.1091 6.47143 11.9028 6.67772C11.6965 6.88401 11.4167 6.9999 11.125 6.9999H10.85C10.5583 6.9999 10.2785 6.88401 10.0722 6.67772C9.86589 6.47143 9.75 6.19164 9.75 5.8999V5.0749Z" stroke="#0D6EFD" stroke-width="0.8" stroke-linecap="round" stroke-linejoin="round"/>
<ellipse cx="11.9501" cy="1.39006" rx="0.329999" ry="0.33" fill="#0D6EFD" stroke="#0D6EFD" stroke-width="0.8"/>
</svg>
