<svg width="17" height="21" viewBox="0 0 17 21" fill="none" xmlns="http://www.w3.org/2000/svg">
<g id="Apple_logo_black 1" clip-path="url(#clip0_65_4268)">
<path id="Vector" d="M14.0187 19.2994C12.9347 20.3514 11.7387 20.1874 10.5987 19.6914C9.38665 19.1854 8.27865 19.1534 6.99865 19.6914C5.40465 20.3794 4.55865 20.1794 3.59865 19.2994C-1.82135 13.7194 -1.02135 5.21941 5.13865 4.89941C6.63265 4.97941 7.67865 5.72541 8.55865 5.78741C9.86665 5.52141 11.1187 4.75941 12.5187 4.85941C14.2007 4.99541 15.4587 5.65941 16.2987 6.8534C12.8387 8.9334 13.6587 13.4934 16.8367 14.7734C16.2007 16.4434 15.3847 18.0934 14.0167 19.3134L14.0187 19.2994ZM8.43865 4.83941C8.27665 2.35942 10.2867 0.319422 12.5987 0.119423C12.9167 2.97941 9.99865 5.11941 8.43865 4.83941Z" fill="white"/>
</g>
<defs>
<clipPath id="clip0_65_4268">
<rect width="16.84" height="20" fill="white" transform="matrix(-1 0 0 1 16.8398 0.0994263)"/>
</clipPath>
</defs>
</svg>
