<svg width="87" height="90" viewBox="0 0 87 90" fill="none" xmlns="http://www.w3.org/2000/svg">
<g id="Group 346">
<path id="Vector" d="M8.19834 77.7906C7.50188 77.4437 7.35264 77.0969 7.65112 76.7005V76.651C7.99935 76.205 10.2877 76.0564 16.2574 76.0564C20.6849 76.1059 24.7144 76.3041 25.1124 76.5023C25.7591 76.8987 25.7094 77.0474 24.8637 77.6419C24.1174 78.1374 21.9286 78.286 16.5559 78.286C12.4766 78.286 8.74556 78.0383 8.19834 77.7906Z" fill="#0D6EFD"/>
<path id="Vector_2" d="M7.60133 49.8948C7.55158 49.4984 7.70082 49.0525 7.94956 48.9038C8.1983 48.7057 12.5761 48.557 17.7498 48.557C24.7641 48.557 27.152 48.7057 27.3012 49.2011C27.4505 49.4984 27.4007 49.9443 27.2515 50.1921C27.0525 50.3903 22.625 50.5389 17.302 50.5389C9.69071 50.5389 7.70082 50.3903 7.60133 49.8948Z" fill="#0D6EFD"/>
<path id="Vector_3" d="M46.0059 44.8407C46.2546 44.1471 47.1003 43.2552 47.8962 42.8588H47.8465C48.9409 42.3138 51.3288 42.1651 67.3972 42.1156L68.8896 43.602C70.183 44.8903 70.382 45.4353 70.382 50.5387H75.9537C81.0279 50.4892 81.7244 50.6378 83.3163 51.6783C84.2615 52.2729 85.3559 53.363 85.6544 54.0071C86.1021 54.8989 86.3011 59.3087 86.3011 69.8624C86.3508 83.7853 86.3011 84.5285 85.3062 85.8663C84.7589 86.6096 83.6148 87.551 82.8188 87.9473C81.5751 88.5915 77.6948 88.6906 57.5472 88.6906C35.5589 88.6906 33.7183 88.641 32.3254 87.7987C31.5294 87.3032 30.435 86.0645 29.9375 85.0736C29.1913 83.488 29.0918 81.5557 29.0918 69.6146C29.0918 58.615 29.241 55.6422 29.838 54.2548C30.236 53.3134 31.3304 52.0747 32.1761 51.5297C33.569 50.6874 34.7132 50.5387 45.5084 50.5387V48.3091C45.5084 47.0704 45.7074 45.5344 46.0059 44.8407Z" fill="#0D6EFD"/>
<path id="Vector_4" d="M31.8278 54.5027C32.3252 53.5612 33.1709 52.8676 34.2156 52.5703H34.1659C35.0613 52.3225 45.757 52.0748 57.945 52.0748C78.0927 52.0253 80.2318 52.1244 81.8237 52.9171C82.7689 53.3631 83.8136 54.3045 84.1618 54.9981C84.6096 55.89 84.8085 59.8538 84.8085 69.367C84.8085 80.9116 84.709 82.6954 83.9131 84.2314C83.4654 85.1728 82.5202 86.2133 81.8237 86.5601C80.8785 87.0556 75.0581 87.2042 58.1938 87.2042C44.3641 87.2042 35.2106 87.006 34.1659 86.7087C33.1709 86.4115 32.2755 85.6682 31.8278 84.7268C31.2308 83.5377 31.0815 80.7135 31.0815 69.6147C31.0815 58.516 31.2308 55.6918 31.8278 54.5027Z" fill="white"/>
<g id="Vector_5">
<path d="M67.2981 77.1456C67.2484 75.9565 67.3976 74.8169 67.6463 74.6682C67.8951 74.4701 68.691 74.3214 69.487 74.3214C70.2332 74.3214 71.2281 74.4205 71.6261 74.5691C72.1236 74.7178 72.3723 75.5106 72.3723 79.2762H67.3976L67.2981 77.1456Z" fill="#0D6EFD"/>
<path d="M65.4575 70.9026C65.358 69.4657 65.4077 67.9297 65.6067 67.5334C65.8554 67.0379 66.7509 66.8892 72.1236 67.137V73.5782H65.6565L65.4575 70.9026Z" fill="#0D6EFD"/>
</g>
<path id="Vector_6" d="M68.8894 71.8449C67.5462 71.8449 67.397 71.6963 67.397 70.3585C67.397 69.0207 67.5462 68.8721 68.8894 68.8721C70.2326 68.8721 70.3818 69.0207 70.3818 70.3585C70.3818 71.6963 70.2326 71.8449 68.8894 71.8449Z" fill="white"/>
<g id="Vector_7">
<path d="M58.0449 69.8619C57.9454 68.9204 58.0449 67.8304 58.1942 67.4836C58.3932 67.0376 59.2389 66.889 63.1689 67.1367V71.596H60.6815C58.1942 71.596 58.1942 71.596 58.0449 69.8619Z" fill="#0D6EFD"/>
<path d="M58.0449 62.2315C57.9454 60.3487 57.9952 58.5154 58.1444 58.119C58.3932 57.574 59.8358 57.4749 72.1234 57.7226V65.6503H58.1942L58.0449 62.2315Z" fill="#0D6EFD"/>
</g>
<path id="Vector_8" d="M60.3335 63.6684C60.0848 63.5197 59.9355 62.5288 59.9355 61.4387V59.4568H70.8799V61.6864C70.8799 63.817 70.8302 63.9161 69.3875 63.9161C68.0443 63.9161 67.9448 63.7674 68.1438 62.6774C68.3428 61.736 68.1936 61.4387 67.5469 61.4387C67.0494 61.4387 66.2037 61.9837 65.6565 62.6774C65.1093 63.3711 64.4625 63.9656 64.1641 63.9656C63.8656 63.9656 64.1641 63.4206 64.761 62.826C65.4077 62.1819 65.9052 61.3892 65.9052 61.0919C65.9052 60.745 65.4575 60.4477 64.96 60.4477C64.4128 60.4477 63.2686 61.2405 62.3234 62.1819C61.428 63.1233 60.5325 63.7674 60.3335 63.6684Z" fill="white"/>
<g id="Vector_9">
<path d="M76.601 84.7269C75.9543 84.7269 75.8548 82.6458 75.8548 69.1193C75.8548 55.5927 75.9543 53.5117 76.601 53.5117C77.2477 53.5117 77.3472 55.5927 77.3472 69.1193C77.3472 82.6458 77.2477 84.7269 76.601 84.7269Z" fill="#0D6EFD"/>
<path d="M37.45 69.4661C37.4002 61.043 37.5495 54.0072 37.7982 53.809C38.0469 53.6604 38.4449 53.5613 38.7434 53.6604C39.1414 53.809 39.2906 58.7638 39.2906 69.1688C39.2906 83.3395 39.2409 84.4791 38.3952 84.5782C37.5992 84.7269 37.5495 83.6863 37.45 69.4661Z" fill="#0D6EFD"/>
</g>
<path id="Vector_10" fill-rule="evenodd" clip-rule="evenodd" d="M48.5437 44.8409C47.5488 45.5345 47.3995 46.03 47.4493 48.111C47.499 50.1425 47.6482 50.5389 48.3447 50.3902C48.9914 50.3407 49.2899 49.7461 49.3397 48.4083C49.4391 47.1696 49.8371 46.3273 50.5833 45.8318C51.4788 45.2373 53.2199 45.0886 58.0454 45.0886C61.876 45.0886 64.8608 45.3364 65.5075 45.6336C66.1542 45.9805 66.8009 46.476 66.9999 46.7732C67.1989 47.0705 67.3979 48.0615 67.3979 48.9533C67.3979 50.0434 67.6466 50.5389 68.1441 50.5389C68.6913 50.5389 68.8903 49.9938 68.8903 48.4083C68.8903 47.2687 68.5421 45.8318 68.1441 45.2373C67.3979 44.1472 67.1492 44.0977 58.5429 44.0977C51.3793 44.0977 49.5386 44.2463 48.5437 44.8409ZM51.23 47.3678C51.0311 47.566 50.8321 48.3588 50.8818 49.1515L50.9813 50.5389H65.408L65.1593 47.3183C54.7124 47.1201 51.4788 47.2192 51.23 47.3678Z" fill="white"/>
<path id="Vector_11" d="M59.9353 29.9762C61.7262 28.787 64.0643 26.9538 65.1588 25.8142C66.2035 24.7241 67.4969 23.7827 67.9944 23.7827C68.4918 23.7827 68.8898 24.08 68.8898 24.4268C68.8898 24.7241 67.4471 26.4088 65.6562 28.1429C63.4674 30.2239 61.1292 31.859 58.2936 33.1968C56.055 34.2869 52.8712 35.5256 51.2295 35.9219C49.4386 36.3679 46.0061 36.6652 42.6233 36.6652C37.5988 36.6652 37.0516 36.5661 37.2008 35.8228C37.3003 35.0301 38.0963 34.8814 43.27 34.6337C46.5533 34.485 50.2346 34.0887 51.4783 33.7418C52.722 33.4445 54.4134 32.8995 55.2093 32.6022C56.0053 32.3049 58.1444 31.1158 59.9353 29.9762Z" fill="#0D6EFD"/>
<path id="Vector_12" d="M10.2872 16.3013C10.6355 15.7562 11.3319 15.1121 11.9289 14.8644C12.4761 14.6662 15.8589 14.5671 19.391 14.6662C24.7139 14.8148 26.0074 15.013 26.7536 15.7067C27.5495 16.4995 27.649 17.6886 27.5993 39.6383H30.0866C31.4298 39.6383 33.2705 39.9851 34.0664 40.3815C34.8624 40.7779 35.9071 41.7689 36.305 42.6112C36.703 43.4039 37.0015 44.9399 36.902 45.9309C36.8523 47.2191 36.5538 47.8137 36.0563 47.8137C35.5588 47.8137 35.2604 47.1696 35.1609 45.8318C35.0614 44.6426 34.5639 43.4039 33.9172 42.7103C32.8227 41.6202 32.773 41.5707 18.8935 41.6202C5.16328 41.6202 4.9643 41.6698 2.67592 43.8499V62.4303C2.67592 80.3666 2.72567 81.0603 4.71556 83.7359H14.665C20.1372 83.7359 24.9627 83.835 25.3607 83.9836C25.7586 84.1322 26.1069 84.5782 26.1069 84.9746C26.1069 85.6187 25.1119 85.7178 13.9188 85.7178L13.0233 87.2042C12.5756 88.0465 11.6802 88.8393 11.0335 88.9879C10.4365 89.1366 9.34205 89.1366 8.5461 88.9879C7.70039 88.7897 6.90444 88.1456 6.45671 87.2042C6.05874 86.4115 5.31253 85.6187 4.81505 85.47C4.36733 85.3709 3.27289 84.5782 0.984518 82.1999L0.686035 44.3453L1.83022 42.6112C2.47694 41.6698 3.57137 40.5797 4.21809 40.2824C4.91455 39.9356 6.40697 39.6383 9.69028 39.6383V28.49C9.69028 20.6615 9.88927 17.0445 10.2872 16.3013Z" fill="#0D6EFD"/>
<g id="Vector_13">
<path d="M8.94456 87.4517C8.54659 87.303 8.14861 86.9066 8.14861 86.5103C8.08228 86.0478 8.56317 85.8496 9.59128 85.9157C10.437 85.9157 11.2329 86.1139 11.3822 86.3121C11.5314 86.5598 11.2329 86.9066 10.6857 87.2039C10.1385 87.4517 9.34254 87.6003 8.94456 87.4517Z" fill="white"/>
<path d="M14.168 39.638V30.7194V21.8008H23.1225V39.638H14.168Z" fill="white"/>
<path d="M11.5812 18.382C11.5314 17.4901 11.7802 16.846 12.2279 16.6973C12.5761 16.5487 15.4117 16.4001 18.3965 16.4001C22.0778 16.3505 24.1672 16.5487 24.7642 16.9451C25.3114 17.3415 25.6099 18.0351 25.5104 18.5802C25.3611 19.5216 24.9134 19.5711 11.6807 19.8189L11.5812 18.382Z" fill="white"/>
</g>
<path id="Vector_14" d="M81.8245 14.7646C81.0285 12.8818 80.4316 11.1972 80.5808 10.8999C80.7798 10.6026 81.0783 10.4044 81.327 10.4044C81.6255 10.4044 82.72 12.1881 83.8144 14.3682C84.9088 16.5484 85.8043 18.8771 85.8043 19.5708C85.8043 20.2644 85.7048 21.1563 85.5555 21.5527C85.4063 21.9491 84.9088 22.2959 84.4611 22.2959C83.9636 22.2959 82.322 20.7104 80.7301 18.5798C79.1382 16.5484 77.8447 14.6655 77.8447 14.3682C77.8447 14.071 78.2427 13.8728 78.6904 13.8728C79.1879 13.8728 80.3321 14.8637 81.1778 16.1024C82.0732 17.3411 82.9189 18.2825 83.0682 18.233C83.2174 18.1339 82.6702 16.5979 81.8245 14.7646Z" fill="#0D6EFD"/>
<path id="Vector_15" d="M77.6944 3.96383C78.6894 2.57649 79.9828 1.1396 80.53 0.743217C81.127 0.346835 81.9727 0 82.4702 0C82.9179 0 83.6641 0.346835 84.0621 0.743217C84.4601 1.1396 84.8083 1.68463 84.8083 1.98191C84.8083 2.2792 84.5596 3.07197 84.2611 3.81518C83.9626 4.60795 81.6245 8.17539 79.0376 11.7924C74.3614 18.2831 74.3614 18.3327 74.6599 20.6614C74.9086 22.5443 74.8091 23.1884 74.1624 23.6343C73.6152 24.0802 73.068 24.1298 72.5207 23.8325C72.0233 23.5848 70.9288 22.6929 70.1329 21.8506C68.7897 20.5128 68.7399 20.3146 69.5359 19.9678C70.1329 19.6705 70.7796 19.9678 73.0182 22.0488L72.67 20.166C72.4212 18.5309 72.6202 17.9859 74.8091 14.9634C76.1025 13.1302 78.4904 9.81047 80.0326 7.58082C81.5747 5.30162 82.8184 3.12151 82.8184 2.72513C82.8184 2.13056 82.6194 2.08101 81.8235 2.47739C81.2762 2.77468 80.8285 3.12151 80.8285 3.3197C80.8285 3.56744 79.8833 4.75659 76.6 8.37358L66.6506 8.52223L70.6303 9.56273C73.5157 10.3555 74.6101 10.9005 74.7096 11.5446C74.8091 12.1392 74.5106 12.387 73.7644 12.3374C73.1177 12.3374 70.7298 11.8419 68.4415 11.2474C65.9541 10.6032 64.0637 9.81047 63.7155 9.31499C63.3175 8.67087 63.3175 8.17539 63.7155 7.58082C64.1632 6.8376 65.1581 6.68896 75.8538 6.44122L77.6944 3.96383Z" fill="#0D6EFD"/>
</g>
</svg>
