<svg width="43" height="43" viewBox="0 0 43 43" fill="none" xmlns="http://www.w3.org/2000/svg">
<rect width="43" height="43" rx="12" fill="black"/>
<g clip-path="url(#clip0_65_5176)">
<path d="M28.3109 31.9105C27.0843 33.1009 25.7309 32.9153 24.4409 32.354C23.0694 31.7815 21.8156 31.7452 20.3672 32.354C18.5635 33.1326 17.6062 32.9062 16.5199 31.9105C10.3867 25.5963 11.292 15.9779 18.2625 15.6158C19.9531 15.7063 21.1367 16.5504 22.1325 16.6206C23.6126 16.3196 25.0293 15.4573 26.6135 15.5705C28.5169 15.7244 29.9404 16.4758 30.8909 17.8269C26.9756 20.1805 27.9035 25.3405 31.4997 26.7889C30.78 28.6787 29.8566 30.5458 28.3086 31.9263L28.3109 31.9105ZM21.9967 15.5479C21.8134 12.7416 24.0879 10.4331 26.7041 10.2068C27.0639 13.4431 23.762 15.8647 21.9967 15.5479Z" fill="white"/>
</g>
<defs>
<clipPath id="clip0_65_5176">
<rect width="19.0558" height="22.6316" rx="9.52789" transform="matrix(-1 0 0 1 31.5029 10.1842)" fill="white"/>
</clipPath>
</defs>
</svg>
