<svg width="43" height="43" viewBox="0 0 43 43" fill="none" xmlns="http://www.w3.org/2000/svg">
<rect width="43" height="43" rx="12" fill="#E9F4FF"/>
<path d="M31.7522 19.6532H30.9554V19.614H22.0533V23.386H27.6434C26.8278 25.5817 24.6364 27.1579 22.0533 27.1579C18.7759 27.1579 16.1186 24.6246 16.1186 21.5C16.1186 18.3754 18.7759 15.8421 22.0533 15.8421C23.5662 15.8421 24.9426 16.3862 25.9905 17.275L28.7883 14.6077C27.0217 13.0381 24.6587 12.0702 22.0533 12.0702C16.5909 12.0702 12.1621 16.2924 12.1621 21.5C12.1621 26.7076 16.5909 30.9298 22.0533 30.9298C27.5158 30.9298 31.9446 26.7076 31.9446 21.5C31.9446 20.8677 31.8763 20.2505 31.7522 19.6532Z" fill="#FFC107"/>
<path d="M13.3027 17.1109L16.5525 19.383C17.4318 17.3075 19.5614 15.8421 22.0535 15.8421C23.5664 15.8421 24.9427 16.3862 25.9907 17.275L28.7884 14.6077C27.0219 13.0381 24.6588 12.0702 22.0535 12.0702C18.2543 12.0702 14.9595 14.115 13.3027 17.1109Z" fill="#FF3D00"/>
<path d="M22.0537 30.9298C24.6086 30.9298 26.9301 29.9977 28.6853 28.4818L25.6239 26.0122C24.5975 26.7564 23.3433 27.1589 22.0537 27.1579C19.481 27.1579 17.2965 25.594 16.4736 23.4114L13.248 25.7807C14.885 28.8345 18.2095 30.9298 22.0537 30.9298Z" fill="#4CAF50"/>
<path d="M31.7525 19.6532H30.9558V19.614H22.0537V23.386H27.6437C27.2536 24.431 26.5509 25.3441 25.6225 26.0126L25.6239 26.0117L28.6853 28.4814C28.4687 28.669 31.9449 26.2149 31.9449 21.5C31.9449 20.8677 31.8767 20.2505 31.7525 19.6532Z" fill="#1976D2"/>
</svg>
