<svg width="43" height="43" viewBox="0 0 43 43" fill="none" xmlns="http://www.w3.org/2000/svg">
<rect width="43" height="43" rx="12" fill="#4460A0"/>
<path d="M21.1312 32.8158C22.2181 32.8158 23.0991 31.9347 23.0991 30.8478V24.2776C23.0991 23.3053 23.8874 22.5171 24.8596 22.5171C25.7502 22.5171 26.5005 21.8521 26.6074 20.968L26.6694 20.4552C26.7984 19.3882 25.9655 18.4485 24.8908 18.4485C23.9013 18.4485 23.0991 17.6464 23.0991 16.6569V15.9057C23.0991 14.7614 23.4681 13.9985 25.0671 13.9985H25.3145C26.3327 13.9985 27.1581 13.1731 27.1581 12.1549C27.1581 11.1367 26.3348 10.2525 25.3175 10.2094C24.9685 10.1946 24.5923 10.1842 24.2061 10.1842C21.2542 10.1842 19.1632 12.0914 19.1632 15.5242V16.7881C19.1632 17.7051 18.4198 18.4485 17.5028 18.4485C16.5857 18.4485 15.8423 19.192 15.8423 20.109V20.8567C15.8423 21.7737 16.5857 22.5171 17.5028 22.5171C18.4198 22.5171 19.1632 23.2606 19.1632 24.1776V30.8478C19.1632 31.9347 20.0443 32.8158 21.1312 32.8158Z" fill="white"/>
</svg>
