<svg width="20" height="21" viewBox="0 0 20 21" fill="none" xmlns="http://www.w3.org/2000/svg">
<g id="Facebook_icon_(black) 1" clip-path="url(#clip0_65_4254)">
<path id="Vector" d="M10 20.0994C15.5228 20.0994 20 15.6223 20 10.0994C20 4.57658 15.5228 0.0994263 10 0.0994263C4.47715 0.0994263 0 4.57658 0 10.0994C0 15.6223 4.47715 20.0994 10 20.0994Z" fill="white"/>
<path id="f" d="M10.9333 16.0328V10.6328H12.7333L13 8.49942H10.9333V7.16609C10.9333 6.56609 11.1333 6.16609 12 6.16609H13.1333V4.23276C12.9333 4.23276 12.2667 4.16609 11.5333 4.16609C9.93333 4.16609 8.8 5.16609 8.8 6.96609V8.49942H7V10.6328H8.8V16.0328H10.9333Z" fill="#0D6EFD"/>
</g>
<defs>
<clipPath id="clip0_65_4254">
<rect width="20" height="20" fill="white" transform="translate(0 0.0994263)"/>
</clipPath>
</defs>
</svg>
