<svg width="25" height="18" viewBox="0 0 25 18" fill="none" xmlns="http://www.w3.org/2000/svg">
<g clip-path="url(#clip0_1252_3088)">
<path d="M25.0002 15.2308C25.0002 15.9652 24.7085 16.6696 24.1891 17.1889C23.6698 17.7082 22.9654 18 22.231 18H2.84638C2.11193 18 1.40757 17.7082 0.888237 17.1889C0.368906 16.6696 0.0771484 15.9652 0.0771484 15.2308V2.76923C0.0771484 2.03479 0.368906 1.33042 0.888237 0.811089C1.40757 0.291757 2.11193 0 2.84638 0H22.231C22.9654 0 23.6698 0.291757 24.1891 0.811089C24.7085 1.33042 25.0002 2.03479 25.0002 2.76923V15.2308Z" fill="#141414"/>
<path d="M0.0771484 5.53857H25.0002V12.4617H0.0771484V5.53857Z" fill="#EEEEEE"/>
<path d="M22.231 0H2.84638C2.11193 0 1.40757 0.291757 0.888237 0.811089C0.368906 1.33042 0.0771484 2.03479 0.0771484 2.76923L0.0771484 5.53846H25.0002V2.76923C25.0002 2.03479 24.7085 1.33042 24.1891 0.811089C23.6698 0.291757 22.9654 0 22.231 0Z" fill="#CE1225"/>
<path d="M10.2886 11.4661C10.2886 11.4661 10.2997 11.6392 10.4506 11.7257C10.4506 11.7257 10.4077 11.8558 10.5697 11.9313C10.7317 12.0068 11.316 12.1258 12.333 12.1258C13.35 12.1258 13.9232 12.0178 14.0748 11.9417C14.2264 11.8662 14.2368 11.6932 14.2368 11.6932C14.2368 11.6932 14.3988 11.6066 14.3884 11.4986C14.3773 11.3906 14.1613 11.2715 14.1613 11.2715C14.1613 11.2715 14.1073 11.131 13.9557 11.077C13.8041 11.023 13.3174 11.3152 12.387 11.2715C11.4565 11.2286 10.9269 11.0874 10.7538 11.0985C10.5807 11.1095 10.5053 11.2826 10.5053 11.2826C10.5053 11.2826 10.31 11.3692 10.2886 11.4661Z" fill="#BF9300"/>
<path d="M10.4076 11.4558C10.3986 11.5202 10.5378 11.6614 10.5378 11.6614C10.5378 11.6614 10.5378 11.8234 10.6783 11.867C10.8189 11.9106 11.3921 12.0186 12.3226 12.0076C13.253 11.9965 13.9128 11.9425 13.9883 11.8774C14.0637 11.8123 14.1288 11.6718 14.1288 11.6718C14.1288 11.6718 14.2804 11.5638 14.2693 11.4773C14.2583 11.3907 14.0423 11.3367 14.0423 11.3367C14.0423 11.3367 13.9813 11.2066 13.9093 11.1526C13.8373 11.0986 13.3721 11.3686 12.3766 11.3686C11.4025 11.3686 10.8403 11.1304 10.7434 11.1415C10.6458 11.1526 10.5814 11.336 10.5814 11.336C10.5814 11.336 10.4187 11.3803 10.4076 11.4558Z" fill="#EEEEEE"/>
<path d="M14.5181 7.2583C14.5181 7.2583 14.4966 6.75015 14.0314 6.81453C13.5661 6.87961 13.5336 7.10669 13.0358 7.16069L12.9334 7.17038C12.8503 6.9453 12.8045 6.70819 12.7977 6.46838C12.7977 6.14369 12.8953 6.00315 12.5595 5.84115C12.2245 5.67915 12.1594 5.83007 12.1594 5.83007C12.1594 5.83007 11.8998 5.69992 11.7807 5.79753C11.6616 5.89515 11.7267 6.14369 11.7807 6.06823C11.8347 5.99277 12.0514 6.20877 12.0514 6.20877C12.1248 6.56807 11.9164 6.95715 11.7738 7.17384C11.7246 7.169 11.6851 7.16692 11.6298 7.16069C11.132 7.10669 11.0995 6.87961 10.6342 6.81453C10.169 6.74946 10.1475 7.2583 10.1475 7.2583L9.96338 11.1851L10.3421 10.8929L10.3441 10.8465L11.132 10.1466L11.2635 10.0151L10.9375 10.9684C10.9375 10.9684 10.4397 10.9358 10.5802 11.336C10.5802 11.336 10.6557 11.1089 10.7858 11.1518C10.916 11.1948 11.294 11.2924 11.294 11.2924L11.4241 11.498L11.5861 11.3464L12.0943 11.3249C12.0943 11.3249 12.2563 11.3678 12.2459 11.5091C12.2757 11.4483 12.2847 11.3795 12.2715 11.3131L12.4245 11.3028C12.4081 11.3724 12.4164 11.4456 12.4481 11.5098C12.437 11.3692 12.5997 11.3256 12.5997 11.3256L13.1078 11.3471L13.2705 11.4987L13.4007 11.2931C13.4007 11.2931 13.7787 11.1955 13.9081 11.1525C14.0376 11.1096 14.1138 11.3367 14.1138 11.3367C14.2543 10.9365 13.7565 10.9691 13.7565 10.9691L13.4457 10.0601L13.5329 10.1473L14.3208 10.8472L14.3228 10.8936L14.7015 11.1858L14.5181 7.2583ZM12.3671 9.63846C11.5868 9.15661 11.5225 7.94023 11.5225 7.94023C11.5225 7.94023 12.005 7.9153 12.3553 7.66953C12.671 7.94992 13.2096 7.91807 13.2096 7.91807C13.2096 7.91807 13.1729 9.1393 12.3671 9.63846ZM14.1505 7.10738L13.4907 7.73461L13.3799 7.77892C13.2664 7.78307 12.7139 7.78446 12.3657 7.475C11.933 7.77823 11.3383 7.79969 11.3383 7.79969L11.2462 7.763L10.5158 7.10738L10.3241 7.1863C10.3324 7.10807 10.3753 6.93223 10.6135 6.96684C11.0039 7.02292 11.1652 7.23753 11.5765 7.28046L11.6928 7.29223L11.6519 7.34484C11.7156 7.34484 11.8098 7.32615 11.879 7.31092L11.9572 7.31853L11.9219 7.44176C11.9773 7.42515 12.0576 7.37738 12.1234 7.33515L12.3034 7.35246L12.3442 7.40923L12.4813 7.34069L12.5734 7.33169C12.653 7.37807 12.7665 7.41961 12.7665 7.41961L12.788 7.31161C12.8856 7.37669 13.0476 7.37669 13.0476 7.37669C13.0289 7.36146 13.0102 7.32269 12.9908 7.28946L13.0905 7.27907C13.5018 7.23615 13.6624 7.02153 14.0535 6.96546C14.2917 6.93153 14.3346 7.10669 14.3429 7.18492L14.1505 7.10738Z" fill="#BF9300"/>
<path d="M12.1058 9.61671L11.7161 11.0982L11.0674 10.9688L11.7382 9.06494L12.1058 9.61671ZM12.5898 9.61671L12.9788 11.0982L13.6282 10.9688L12.9574 9.06494L12.5898 9.61671Z" fill="#EEEEEE"/>
<path d="M11.6846 8.059C11.6846 8.059 11.7386 8.68623 12.0196 9.17292V7.91846C12.0196 7.91846 11.8355 8.02646 11.6846 8.059ZM13.0366 8.08046C13.0366 8.08046 12.9826 8.70769 12.7016 9.19438V7.93992C12.7009 7.93992 12.885 8.04792 13.0366 8.08046Z" fill="#BF9300"/>
<path d="M11.814 5.93879C11.814 5.93879 11.8894 5.86333 12.1061 6.01425C12.2467 6.11256 12.3713 6.18733 12.3713 6.18733C12.3713 6.18733 12.4599 6.09386 12.59 6.11533C12.7202 6.13679 12.6475 6.31748 12.669 6.69548C12.6904 7.07417 12.842 7.23617 12.842 7.23617L12.6579 7.12817L12.669 7.24725L12.4634 7.14963L12.3657 7.29017L12.2681 7.13856L12.1103 7.23479L12.0625 7.10602L11.8783 7.20363C11.8783 7.20363 12.149 6.86856 12.1705 6.50025C12.1767 6.39017 12.149 6.14302 12.149 6.14302C12.149 6.14302 11.9767 5.92771 11.814 5.93879Z" fill="#EEEEEE"/>
<path d="M10.8405 11.531C10.7166 11.6051 10.765 11.6501 10.8405 11.6826C10.916 11.7151 11.3701 11.7698 12.2902 11.7906C13.231 11.8121 13.8153 11.7041 13.8908 11.6605C13.9663 11.6175 13.9773 11.5414 13.8479 11.5199C13.7177 11.4985 13.069 11.6065 12.2791 11.6065C11.3057 11.6071 10.8945 11.4985 10.8405 11.531Z" fill="#BF9300"/>
</g>
<defs>
<clipPath id="clip0_1252_3088">
<rect width="24.9231" height="18" fill="white" transform="translate(0.0771484)"/>
</clipPath>
</defs>
</svg>
