<svg width="49" height="18" viewBox="0 0 49 18" fill="none" xmlns="http://www.w3.org/2000/svg">
<g clip-path="url(#clip0_901_4378)">
<path d="M12.0771 7L8.07715 11L4.07715 7" stroke="#BAC3CE" stroke-width="2" stroke-linecap="round" stroke-linejoin="round"/>
</g>
<g clip-path="url(#clip1_901_4378)">
<path d="M49.0002 15.2308C49.0002 15.9652 48.7085 16.6696 48.1891 17.1889C47.6698 17.7082 46.9654 18 46.231 18H26.8464C26.1119 18 25.4076 17.7082 24.8882 17.1889C24.3689 16.6696 24.0771 15.9652 24.0771 15.2308V2.76923C24.0771 2.03479 24.3689 1.33042 24.8882 0.811089C25.4076 0.291757 26.1119 0 26.8464 0H46.231C46.9654 0 47.6698 0.291757 48.1891 0.811089C48.7085 1.33042 49.0002 2.03479 49.0002 2.76923V15.2308Z" fill="#141414"/>
<path d="M24.0771 5.53857H49.0002V12.4617H24.0771V5.53857Z" fill="#EEEEEE"/>
<path d="M46.231 0H26.8464C26.1119 0 25.4076 0.291757 24.8882 0.811089C24.3689 1.33042 24.0771 2.03479 24.0771 2.76923V5.53846H49.0002V2.76923C49.0002 2.03479 48.7085 1.33042 48.1891 0.811089C47.6698 0.291757 46.9654 0 46.231 0Z" fill="#CE1225"/>
<path d="M34.2886 11.4661C34.2886 11.4661 34.2997 11.6392 34.4506 11.7257C34.4506 11.7257 34.4077 11.8558 34.5697 11.9313C34.7317 12.0068 35.316 12.1258 36.333 12.1258C37.35 12.1258 37.9232 12.0178 38.0748 11.9417C38.2264 11.8662 38.2368 11.6932 38.2368 11.6932C38.2368 11.6932 38.3988 11.6066 38.3884 11.4986C38.3773 11.3906 38.1613 11.2715 38.1613 11.2715C38.1613 11.2715 38.1073 11.131 37.9557 11.077C37.8041 11.023 37.3174 11.3152 36.387 11.2715C35.4565 11.2286 34.9269 11.0874 34.7538 11.0985C34.5807 11.1095 34.5053 11.2826 34.5053 11.2826C34.5053 11.2826 34.31 11.3692 34.2886 11.4661Z" fill="#BF9300"/>
<path d="M34.4076 11.4556C34.3986 11.5199 34.5378 11.6612 34.5378 11.6612C34.5378 11.6612 34.5378 11.8232 34.6783 11.8668C34.8189 11.9104 35.3921 12.0184 36.3226 12.0073C37.253 11.9962 37.9128 11.9422 37.9883 11.8772C38.0637 11.8121 38.1288 11.6716 38.1288 11.6716C38.1288 11.6716 38.2804 11.5636 38.2693 11.477C38.2583 11.3905 38.0423 11.3365 38.0423 11.3365C38.0423 11.3365 37.9813 11.2063 37.9093 11.1523C37.8373 11.0983 37.3721 11.3683 36.3766 11.3683C35.4025 11.3683 34.8403 11.1302 34.7434 11.1412C34.6458 11.1523 34.5814 11.3358 34.5814 11.3358C34.5814 11.3358 34.4187 11.3801 34.4076 11.4556Z" fill="#EEEEEE"/>
<path d="M38.5181 7.25806C38.5181 7.25806 38.4966 6.74991 38.0314 6.81429C37.5661 6.87937 37.5336 7.10644 37.0358 7.16044L36.9334 7.17014C36.8503 6.94505 36.8045 6.70795 36.7977 6.46814C36.7977 6.14344 36.8953 6.00291 36.5595 5.84091C36.2245 5.67891 36.1594 5.82983 36.1594 5.82983C36.1594 5.82983 35.8998 5.69967 35.7807 5.79729C35.6616 5.8949 35.7267 6.14344 35.7807 6.06798C35.8347 5.99252 36.0514 6.20852 36.0514 6.20852C36.1248 6.56783 35.9164 6.95691 35.7738 7.1736C35.7246 7.16875 35.6851 7.16667 35.6298 7.16044C35.132 7.10644 35.0995 6.87937 34.6342 6.81429C34.169 6.74921 34.1475 7.25806 34.1475 7.25806L33.9634 11.1848L34.3421 10.8927L34.3441 10.8463L35.132 10.1464L35.2635 10.0148L34.9375 10.9681C34.9375 10.9681 34.4397 10.9356 34.5802 11.3358C34.5802 11.3358 34.6557 11.1087 34.7858 11.1516C34.916 11.1945 35.294 11.2921 35.294 11.2921L35.4241 11.4978L35.5861 11.3461L36.0943 11.3247C36.0943 11.3247 36.2563 11.3676 36.2459 11.5088C36.2757 11.4481 36.2847 11.3793 36.2715 11.3129L36.4245 11.3025C36.4081 11.3722 36.4164 11.4453 36.4481 11.5095C36.437 11.369 36.5997 11.3254 36.5997 11.3254L37.1078 11.3468L37.2705 11.4984L37.4007 11.2928C37.4007 11.2928 37.7787 11.1952 37.9081 11.1523C38.0376 11.1094 38.1138 11.3364 38.1138 11.3364C38.2543 10.9363 37.7565 10.9688 37.7565 10.9688L37.4457 10.0598L37.5329 10.1471L38.3208 10.847L38.3228 10.8934L38.7015 11.1855L38.5181 7.25806ZM36.3671 9.63821C35.5868 9.15637 35.5225 7.93998 35.5225 7.93998C35.5225 7.93998 36.005 7.91506 36.3553 7.66929C36.671 7.94967 37.2096 7.91783 37.2096 7.91783C37.2096 7.91783 37.1729 9.13906 36.3671 9.63821ZM38.1505 7.10714L37.4907 7.73437L37.3799 7.77867C37.2664 7.78283 36.7139 7.78421 36.3657 7.47475C35.933 7.77798 35.3383 7.79944 35.3383 7.79944L35.2462 7.76275L34.5158 7.10714L34.3241 7.18606C34.3324 7.10783 34.3753 6.93198 34.6135 6.9666C35.0039 7.02267 35.1652 7.23729 35.5765 7.28021L35.6928 7.29198L35.6519 7.3446C35.7156 7.3446 35.8098 7.32591 35.879 7.31067L35.9572 7.31829L35.9219 7.44152C35.9773 7.4249 36.0576 7.37714 36.1234 7.33491L36.3034 7.35221L36.3442 7.40898L36.4813 7.34044L36.5734 7.33144C36.653 7.37783 36.7665 7.41937 36.7665 7.41937L36.788 7.31137C36.8856 7.37644 37.0476 7.37644 37.0476 7.37644C37.0289 7.36121 37.0102 7.32244 36.9908 7.28921L37.0905 7.27883C37.5018 7.23591 37.6624 7.02129 38.0535 6.96521C38.2917 6.93129 38.3346 7.10644 38.3429 7.18467L38.1505 7.10714Z" fill="#BF9300"/>
<path d="M36.1058 9.61696L35.7161 11.0985L35.0674 10.969L35.7382 9.06519L36.1058 9.61696ZM36.5898 9.61696L36.9788 11.0985L37.6282 10.969L36.9574 9.06519L36.5898 9.61696Z" fill="#EEEEEE"/>
<path d="M35.6846 8.05924C35.6846 8.05924 35.7386 8.68647 36.0196 9.17316V7.9187C36.0196 7.9187 35.8355 8.0267 35.6846 8.05924ZM37.0366 8.0807C37.0366 8.0807 36.9826 8.70793 36.7016 9.19462V7.94016C36.7009 7.94016 36.885 8.04816 37.0366 8.0807Z" fill="#BF9300"/>
<path d="M35.814 5.93854C35.814 5.93854 35.8894 5.86308 36.1061 6.014C36.2467 6.11231 36.3713 6.18708 36.3713 6.18708C36.3713 6.18708 36.4599 6.09362 36.59 6.11508C36.7202 6.13654 36.6475 6.31724 36.669 6.69524C36.6904 7.07393 36.842 7.23593 36.842 7.23593L36.6579 7.12793L36.669 7.247L36.4634 7.14939L36.3657 7.28993L36.2681 7.13831L36.1103 7.23454L36.0625 7.10577L35.8783 7.20339C35.8783 7.20339 36.149 6.86831 36.1705 6.5C36.1767 6.38993 36.149 6.14277 36.149 6.14277C36.149 6.14277 35.9767 5.92747 35.814 5.93854Z" fill="#EEEEEE"/>
<path d="M34.8405 11.531C34.7166 11.6051 34.765 11.6501 34.8405 11.6826C34.916 11.7151 35.3701 11.7698 36.2902 11.7906C37.231 11.8121 37.8153 11.7041 37.8908 11.6605C37.9663 11.6175 37.9773 11.5414 37.8479 11.5199C37.7177 11.4985 37.069 11.6065 36.2791 11.6065C35.3057 11.6071 34.8945 11.4985 34.8405 11.531Z" fill="#BF9300"/>
</g>
<defs>
<clipPath id="clip0_901_4378">
<rect width="16" height="16" fill="white" transform="translate(0.0771484 1)"/>
</clipPath>
<clipPath id="clip1_901_4378">
<rect width="24.9231" height="18" fill="white" transform="translate(24.0771)"/>
</clipPath>
</defs>
</svg>
