<svg width="21" height="21" viewBox="0 0 21 21" fill="none" xmlns="http://www.w3.org/2000/svg">
<g id="Icon">
<path id="Vector" d="M19.0602 8.46734H18.3561V8.43276H10.4891V11.7661H15.4291C14.7084 13.7065 12.7719 15.0994 10.4891 15.0994C7.59277 15.0994 5.24448 12.8607 5.24448 10.0994C5.24448 7.33817 7.59277 5.09942 10.4891 5.09942C11.8261 5.09942 13.0424 5.58026 13.9685 6.36567L16.4409 4.00859C14.8798 2.62151 12.7915 1.76609 10.4891 1.76609C5.66187 1.76609 1.74805 5.49734 1.74805 10.0994C1.74805 14.7015 5.66187 18.4328 10.4891 18.4328C15.3164 18.4328 19.2302 14.7015 19.2302 10.0994C19.2302 9.54068 19.1699 8.99526 19.0602 8.46734Z" fill="#FFC107"/>
<path id="Vector_2" d="M2.75586 6.22067L5.62774 8.22859C6.40482 6.39442 8.28678 5.09942 10.4891 5.09942C11.826 5.09942 13.0424 5.58026 13.9685 6.36567L16.4409 4.00859C14.8797 2.62151 12.7915 1.76609 10.4891 1.76609C7.13164 1.76609 4.21999 3.57317 2.75586 6.22067Z" fill="#FF3D00"/>
<path id="Vector_3" d="M10.4893 18.4328C12.7471 18.4328 14.7986 17.609 16.3497 16.2694L13.6444 14.0869C12.7373 14.7446 11.6289 15.1003 10.4893 15.0994C8.21571 15.0994 6.28524 13.7173 5.55799 11.7886L2.70752 13.8823C4.15417 16.5811 7.09204 18.4328 10.4893 18.4328Z" fill="#4CAF50"/>
<path id="Vector_4" d="M19.0603 8.46735H18.3562V8.43276H10.4893V11.7661H15.4293C15.0845 12.6896 14.4635 13.4966 13.643 14.0873L13.6444 14.0865L16.3497 16.269C16.1583 16.4348 19.2303 14.2661 19.2303 10.0994C19.2303 9.54068 19.17 8.99526 19.0603 8.46735Z" fill="#1976D2"/>
</g>
</svg>
