<svg width="25" height="25" viewBox="0 0 25 25" fill="none" xmlns="http://www.w3.org/2000/svg">
<path d="M6.69832 18.7054C4.46832 17.2454 3.02832 15.0454 3.02832 13.1154C3.02832 9.83543 7.16832 5.81543 12.2783 5.81543C14.3683 5.81543 16.3083 6.48543 17.8683 7.52543" stroke="#130F26" stroke-width="1.5" stroke-linecap="round" stroke-linejoin="round"/>
<path d="M20.128 9.58594C21.019 10.7159 21.538 11.9659 21.538 13.1159C21.538 16.3959 17.388 20.4159 12.278 20.4159C11.368 20.4159 10.479 20.2859 9.64801 20.0559" stroke="#130F26" stroke-width="1.5" stroke-linecap="round" stroke-linejoin="round"/>
<path d="M10.044 15.3428C9.44904 14.7538 9.11604 13.9508 9.11904 13.1138C9.11504 11.3688 10.527 9.95076 12.273 9.94776C13.113 9.94576 13.919 10.2788 14.513 10.8728" stroke="#130F26" stroke-width="1.5" stroke-linecap="round" stroke-linejoin="round"/>
<path d="M15.3878 13.6748C15.1538 14.9668 14.1428 15.9798 12.8508 16.2168" stroke="#130F26" stroke-width="1.5" stroke-linecap="round" stroke-linejoin="round"/>
<path d="M20.17 5.22559L4.396 20.9996" stroke="#130F26" stroke-width="1.5" stroke-linecap="round" stroke-linejoin="round"/>
</svg>
