<svg width="22" height="22" viewBox="0 0 22 22" fill="none" xmlns="http://www.w3.org/2000/svg">
<path d="M11 21.5H0.5V1.5C0.5 1.5 2.5 0.5 5.75 0.5C9 0.5 11 1.5 11 1.5V21.5ZM11 21.5V11.5H11.25C11.25 11.5 13 12.5 16.25 12.5C19.5 12.5 21.25 11.5 21.25 11.5H21.5V21.5H11ZM0.5 8.5C0.5 8.5 2.5 7.5 5.75 7.5C9 7.5 11 8.5 11 8.5M3 3.5V5.5M3 10V12M17.5 12.449V8.75C17.5 8.41848 17.3683 8.10054 17.1339 7.86612C16.8995 7.6317 16.5815 7.5 16.25 7.5C15.9185 7.5 15.6005 7.6317 15.3661 7.86612C15.1317 8.10054 15 8.41848 15 8.75V9" stroke="#0D6EFD"/>
</svg>
