<svg width="11" height="10" viewBox="0 0 11 10" fill="none" xmlns="http://www.w3.org/2000/svg">
<path d="M5.0137 1.09582L5.01406 1.09509C5.07463 0.973828 5.16778 0.871836 5.28307 0.80055C5.39835 0.729264 5.53122 0.691504 5.66677 0.691504C5.80231 0.691504 5.93518 0.729264 6.05046 0.80055C6.16575 0.871836 6.2589 0.973829 6.31947 1.09509L6.31983 1.09582L7.32073 3.1115L9.55692 3.43646C9.55737 3.43653 9.55781 3.43659 9.55826 3.43665C9.69257 3.45553 9.81891 3.51166 9.92295 3.5987L9.69838 3.86715L9.92295 3.5987C10.0273 3.68602 10.1051 3.80094 10.1473 3.93032C10.1895 4.05971 10.1945 4.19836 10.1616 4.33044C10.1289 4.46241 10.0597 4.5825 9.96194 4.67705C9.96191 4.67708 9.96188 4.67711 9.96186 4.67713C9.9618 4.67719 9.96174 4.67724 9.96168 4.6773L8.34394 6.24422L8.72584 8.45781L8.72586 8.45796C8.82889 9.05664 8.19863 9.50059 7.66903 9.22429L7.66875 9.22414L5.66675 8.17727L3.66464 9.22399C3.66458 9.22402 3.66452 9.22405 3.66446 9.22408L3.66434 9.22415L3.50218 8.91398L5.0137 1.09582ZM5.0137 1.09582L4.01278 3.11153L1.77499 3.43711C1.64086 3.45616 1.51473 3.51237 1.41088 3.59939L1.63567 3.86766L1.41088 3.59939C1.30679 3.68661 1.22926 3.80128 1.18709 3.93037C1.14493 4.05946 1.13982 4.19779 1.17236 4.32964L1.51217 4.24578L1.17236 4.32964C1.2049 4.46148 1.27377 4.58155 1.37115 4.67621L1.37159 4.67664L2.98959 6.2438L5.0137 1.09582Z" fill="white"/>
<path d="M5.0137 1.09582L5.01406 1.09509C5.07463 0.973828 5.16778 0.871836 5.28307 0.80055C5.39835 0.729264 5.53122 0.691504 5.66677 0.691504C5.80231 0.691504 5.93518 0.729264 6.05046 0.80055C6.16575 0.871836 6.2589 0.973829 6.31947 1.09509L6.31983 1.09582L7.32073 3.1115L9.55692 3.43646C9.55737 3.43653 9.55781 3.43659 9.55826 3.43665C9.69257 3.45553 9.81891 3.51166 9.92295 3.5987L9.69838 3.86715L9.92295 3.5987C10.0273 3.68602 10.1051 3.80094 10.1473 3.93032C10.1895 4.05971 10.1945 4.19836 10.1616 4.33044C10.1289 4.46241 10.0597 4.5825 9.96194 4.67705C9.96191 4.67708 9.96188 4.67711 9.96186 4.67713C9.9618 4.67719 9.96174 4.67724 9.96168 4.6773L8.34394 6.24422L8.72584 8.45781L8.72586 8.45796C8.82889 9.05664 8.19863 9.50059 7.66903 9.22429L7.66875 9.22414L5.66675 8.17727L3.66464 9.22399C3.66458 9.22402 3.66452 9.22405 3.66446 9.22408L3.66434 9.22415L3.50218 8.91398L5.0137 1.09582ZM5.0137 1.09582L4.01278 3.11153L1.77499 3.43711C1.64086 3.45616 1.51473 3.51237 1.41088 3.59939L1.63567 3.86766L1.41088 3.59939C1.30679 3.68661 1.22926 3.80128 1.18709 3.93037C1.14493 4.05946 1.13982 4.19779 1.17236 4.32964L1.51217 4.24578L1.17236 4.32964C1.2049 4.46148 1.27377 4.58155 1.37115 4.67621L1.37159 4.67664L2.98959 6.2438L5.0137 1.09582Z" fill="url(#paint0_radial_1029_9663)" fill-opacity="0.5"/>
<path d="M5.0137 1.09582L5.01406 1.09509C5.07463 0.973828 5.16778 0.871836 5.28307 0.80055C5.39835 0.729264 5.53122 0.691504 5.66677 0.691504C5.80231 0.691504 5.93518 0.729264 6.05046 0.80055C6.16575 0.871836 6.2589 0.973829 6.31947 1.09509L6.31983 1.09582L7.32073 3.1115L9.55692 3.43646C9.55737 3.43653 9.55781 3.43659 9.55826 3.43665C9.69257 3.45553 9.81891 3.51166 9.92295 3.5987L9.69838 3.86715L9.92295 3.5987C10.0273 3.68602 10.1051 3.80094 10.1473 3.93032C10.1895 4.05971 10.1945 4.19836 10.1616 4.33044C10.1289 4.46241 10.0597 4.5825 9.96194 4.67705C9.96191 4.67708 9.96188 4.67711 9.96186 4.67713C9.9618 4.67719 9.96174 4.67724 9.96168 4.6773L8.34394 6.24422L8.72584 8.45781L8.72586 8.45796C8.82889 9.05664 8.19863 9.50059 7.66903 9.22429L7.66875 9.22414L5.66675 8.17727L3.66464 9.22399C3.66458 9.22402 3.66452 9.22405 3.66446 9.22408L3.66434 9.22415L3.50218 8.91398L5.0137 1.09582ZM5.0137 1.09582L4.01278 3.11153L1.77499 3.43711C1.64086 3.45616 1.51473 3.51237 1.41088 3.59939L1.63567 3.86766L1.41088 3.59939C1.30679 3.68661 1.22926 3.80128 1.18709 3.93037C1.14493 4.05946 1.13982 4.19779 1.17236 4.32964L1.51217 4.24578L1.17236 4.32964C1.2049 4.46148 1.27377 4.58155 1.37115 4.67621L1.37159 4.67664L2.98959 6.2438L5.0137 1.09582Z" stroke="white" stroke-width="0.7" stroke-linecap="round" stroke-linejoin="round"/>
<path d="M5.0137 1.09582L5.01406 1.09509C5.07463 0.973828 5.16778 0.871836 5.28307 0.80055C5.39835 0.729264 5.53122 0.691504 5.66677 0.691504C5.80231 0.691504 5.93518 0.729264 6.05046 0.80055C6.16575 0.871836 6.2589 0.973829 6.31947 1.09509L6.31983 1.09582L7.32073 3.1115L9.55692 3.43646C9.55737 3.43653 9.55781 3.43659 9.55826 3.43665C9.69257 3.45553 9.81891 3.51166 9.92295 3.5987L9.69838 3.86715L9.92295 3.5987C10.0273 3.68602 10.1051 3.80094 10.1473 3.93032C10.1895 4.05971 10.1945 4.19836 10.1616 4.33044C10.1289 4.46241 10.0597 4.5825 9.96194 4.67705C9.96191 4.67708 9.96188 4.67711 9.96186 4.67713C9.9618 4.67719 9.96174 4.67724 9.96168 4.6773L8.34394 6.24422L8.72584 8.45781L8.72586 8.45796C8.82889 9.05664 8.19863 9.50059 7.66903 9.22429L7.66875 9.22414L5.66675 8.17727L3.66464 9.22399C3.66458 9.22402 3.66452 9.22405 3.66446 9.22408L3.66434 9.22415L3.50218 8.91398L5.0137 1.09582ZM5.0137 1.09582L4.01278 3.11153L1.77499 3.43711C1.64086 3.45616 1.51473 3.51237 1.41088 3.59939L1.63567 3.86766L1.41088 3.59939C1.30679 3.68661 1.22926 3.80128 1.18709 3.93037C1.14493 4.05946 1.13982 4.19779 1.17236 4.32964L1.51217 4.24578L1.17236 4.32964C1.2049 4.46148 1.27377 4.58155 1.37115 4.67621L1.37159 4.67664L2.98959 6.2438L5.0137 1.09582Z" stroke="url(#paint1_radial_1029_9663)" stroke-opacity="0.5" stroke-width="0.7" stroke-linecap="round" stroke-linejoin="round"/>
<defs>
<radialGradient id="paint0_radial_1029_9663" cx="0" cy="0" r="1" gradientUnits="userSpaceOnUse" gradientTransform="translate(1.50122 -0.247254) rotate(53.0386) scale(11.5206 11.6988)">
<stop offset="0.046875" stop-color="#FDB54A"/>
<stop offset="0.983052" stop-color="#F28649"/>
</radialGradient>
<radialGradient id="paint1_radial_1029_9663" cx="0" cy="0" r="1" gradientUnits="userSpaceOnUse" gradientTransform="translate(1.50122 -0.247254) rotate(53.0386) scale(11.5206 11.6988)">
<stop offset="0.046875" stop-color="#FDB54A"/>
<stop offset="0.983052" stop-color="#F28649"/>
</radialGradient>
</defs>
</svg>
