<svg width="10" height="10" viewBox="0 0 10 10" fill="none" xmlns="http://www.w3.org/2000/svg">
<path d="M3.57793 3.43148L4.66043 1.25148C4.69194 1.18839 4.74041 1.13533 4.80039 1.09824C4.86037 1.06115 4.92949 1.0415 5.00002 1.0415C5.07054 1.0415 5.13966 1.06115 5.19965 1.09824C5.25963 1.13533 5.30809 1.18839 5.3396 1.25148L6.4221 3.43148L8.8421 3.78315C8.9119 3.79283 8.97758 3.82193 9.03163 3.86715C9.08568 3.91237 9.12593 3.97187 9.14778 4.03887C9.16964 4.10586 9.17221 4.17765 9.15522 4.24604C9.13823 4.31443 9.10235 4.37667 9.05168 4.42565L7.30085 6.12148L7.71418 8.51731C7.7671 8.82481 7.4421 9.05898 7.16418 8.91398L5.00002 7.78231L2.83543 8.91398C2.55793 9.0594 2.23293 8.82481 2.28585 8.5169L2.69918 6.12106L0.948351 4.42523C0.897929 4.37622 0.862267 4.31405 0.845419 4.24578C0.828572 4.17751 0.831214 4.10588 0.853047 4.03904C0.874879 3.9722 0.915025 3.91282 0.968921 3.86766C1.02282 3.8225 1.0883 3.79336 1.15793 3.78356L3.57793 3.43148Z" fill="url(#paint0_radial_1029_9677)" stroke="url(#paint1_radial_1029_9677)" stroke-linecap="round" stroke-linejoin="round"/>
<defs>
<radialGradient id="paint0_radial_1029_9677" cx="0" cy="0" r="1" gradientUnits="userSpaceOnUse" gradientTransform="translate(0.834473 -0.247254) rotate(53.0386) scale(11.5206 11.6988)">
<stop offset="0.046875" stop-color="#FFFBDB"/>
<stop offset="0.983052" stop-color="#F28649"/>
</radialGradient>
<radialGradient id="paint1_radial_1029_9677" cx="0" cy="0" r="1" gradientUnits="userSpaceOnUse" gradientTransform="translate(0.834473 -0.247254) rotate(53.0386) scale(11.5206 11.6988)">
<stop offset="0.046875" stop-color="#FDB54A"/>
<stop offset="0.983052" stop-color="#F28649"/>
</radialGradient>
</defs>
</svg>
