<svg width="24" height="24" viewBox="0 0 24 24" fill="none" xmlns="http://www.w3.org/2000/svg">
<path fill-rule="evenodd" clip-rule="evenodd" d="M9.06703 13.5696L7.22803 11.1246L8.57803 10.6716C8.82303 10.5896 9.09203 10.6276 9.30403 10.7746L10.476 11.5836L13.295 10.3426L10.35 6.61156L12.748 6.10156L16.621 9.13456L20.751 7.48856C21.762 7.08556 22.878 7.75956 22.991 8.84156V8.84156C23.067 9.55956 22.664 10.2436 21.998 10.5256L14.595 13.6596C14.405 13.7396 14.203 13.7836 13.997 13.7886L9.74303 13.8946C9.47803 13.9036 9.22603 13.7816 9.06703 13.5696Z" stroke="#828282" stroke-width="1.4" stroke-linecap="round" stroke-linejoin="round"/>
<path d="M20.035 7.79972C18.59 4.96072 15.648 3.01172 12.245 3.01172C7.415 3.01172 3.5 6.92872 3.5 11.7617C3.5 16.5937 7.415 20.5117 12.245 20.5117C17.075 20.5117 20.99 16.5947 20.99 11.7617C20.99 11.5007 20.973 11.2447 20.951 10.9897" stroke="#828282" stroke-width="1.4" stroke-linecap="round" stroke-linejoin="round"/>
<path d="M3.52015 12.3486C1.65615 13.7156 0.647147 15.2326 1.09715 16.2926C1.73515 17.8726 5.33515 17.9076 9.13815 16.3706" stroke="#828282" stroke-width="1.4" stroke-linecap="round" stroke-linejoin="round"/>
</svg>
