<svg width="25" height="25" viewBox="0 0 25 25" fill="none" xmlns="http://www.w3.org/2000/svg">
<path fill-rule="evenodd" clip-rule="evenodd" d="M12.1229 22.6374C8.43105 22.6374 5.27832 22.0629 5.27832 19.7621C5.27832 17.4613 8.41105 15.3374 12.1229 15.3374C15.8147 15.3374 18.9674 17.4408 18.9674 19.7415C18.9674 22.0414 15.8347 22.6374 12.1229 22.6374Z" stroke="#130F26" stroke-width="1.5" stroke-linecap="round" stroke-linejoin="round"/>
<path fill-rule="evenodd" clip-rule="evenodd" d="M12.1156 12.1491C14.5384 12.1491 16.502 10.1855 16.502 7.76276C16.502 5.34003 14.5384 3.37549 12.1156 3.37549C9.6929 3.37549 7.72836 5.34003 7.72836 7.76276C7.72018 10.1773 9.67018 12.1409 12.0847 12.1491C12.0956 12.1491 12.1056 12.1491 12.1156 12.1491Z" stroke="#130F26" stroke-width="1.5" stroke-linecap="round" stroke-linejoin="round"/>
</svg>
