<svg width="25" height="25" viewBox="0 0 25 25" fill="none" xmlns="http://www.w3.org/2000/svg">
<path fill-rule="evenodd" clip-rule="evenodd" d="M12.2783 10.4756C13.6592 10.4756 14.7783 11.5947 14.7783 12.9756C14.7783 14.3565 13.6592 15.4756 12.2783 15.4756C10.8974 15.4756 9.77832 14.3565 9.77832 12.9756C9.77832 11.5947 10.8974 10.4756 12.2783 10.4756Z" stroke="#130F26" stroke-width="1.5" stroke-linecap="round" stroke-linejoin="round"/>
<path fill-rule="evenodd" clip-rule="evenodd" d="M20.4463 8.22583V8.22583C19.7628 7.03358 18.2496 6.62563 17.0668 7.31411C16.0381 7.91172 14.7524 7.16397 14.7524 5.96776C14.7524 4.59178 13.6442 3.47559 12.2781 3.47559V3.47559C10.912 3.47559 9.80378 4.59178 9.80378 5.96776C9.80378 7.16397 8.51809 7.91172 7.49031 7.31411C6.30661 6.62563 4.79339 7.03358 4.10985 8.22583C3.42728 9.41809 3.83231 10.9422 5.01601 11.6297C6.04378 12.2283 6.04378 13.7228 5.01601 14.3214C3.83231 15.0099 3.42728 16.5341 4.10985 17.7253C4.79339 18.9176 6.30661 19.3255 7.48933 18.6381H7.49031C8.51809 18.0395 9.80378 18.7872 9.80378 19.9834V19.9834C9.80378 21.3594 10.912 22.4756 12.2781 22.4756V22.4756C13.6442 22.4756 14.7524 21.3594 14.7524 19.9834V19.9834C14.7524 18.7872 16.0381 18.0395 17.0668 18.6381C18.2496 19.3255 19.7628 18.9176 20.4463 17.7253C21.1299 16.5341 20.7239 15.0099 19.5411 14.3214H19.5402C18.5124 13.7228 18.5124 12.2283 19.5411 11.6297C20.7239 10.9422 21.1299 9.41809 20.4463 8.22583Z" stroke="#130F26" stroke-width="1.5" stroke-linecap="round" stroke-linejoin="round"/>
</svg>
