<svg width="333" height="81" viewBox="0 0 333 81" fill="none" xmlns="http://www.w3.org/2000/svg">
<path d="M84 39C84 35.134 87.134 32 91 32C94.866 32 98 35.134 98 39V51H84V39Z" fill="#E7E7E7"/>
<path d="M98 7C98 3.13401 101.134 0 105 0C108.866 0 112 3.13401 112 7V51H98V7Z" fill="#E7E7E7"/>
<path d="M112 20.5C112 16.3579 115.358 13 119.5 13C123.642 13 127 16.3579 127 20.5V51H112V20.5Z" fill="#E7E7E7"/>
<path d="M169 20.5C169 16.3579 172.358 13 176.5 13C180.642 13 184 16.3579 184 20.5V51H169V20.5Z" fill="#E7E7E7"/>
<path d="M127 29C127 25.134 130.134 22 134 22C137.866 22 141 25.134 141 29V51H127V29Z" fill="#E7E7E7"/>
<path d="M155 29C155 25.134 158.134 22 162 22C165.866 22 169 25.134 169 29V51H155V29Z" fill="#E7E7E7"/>
<path d="M141 33C141 29.134 144.134 26 148 26C151.866 26 155 29.134 155 33V51H141V33Z" fill="#E7E7E7"/>
<path d="M226 20.5C226 16.3579 229.358 13 233.5 13C237.642 13 241 16.3579 241 20.5V51H226V20.5Z" fill="#E7E7E7"/>
<path d="M184 29C184 25.134 187.134 22 191 22C194.866 22 198 25.134 198 29V51H184V29Z" fill="#E7E7E7"/>
<path d="M212 29C212 25.134 215.134 22 219 22C222.866 22 226 25.134 226 29V51H212V29Z" fill="#E7E7E7"/>
<path d="M198 33C198 29.134 201.134 26 205 26C208.866 26 212 29.134 212 33V51H198V33Z" fill="#E7E7E7"/>
<line opacity="0.2" x1="1.5" y1="49.5" x2="331.5" y2="49.5" stroke="#0D6EFD" stroke-width="3" stroke-linecap="round"/>
<line x1="80.5" y1="49.5" x2="241.5" y2="49.5" stroke="#0D6EFD" stroke-width="3" stroke-linecap="round"/>
<rect x="224.5" y="31.5" width="34" height="34" rx="8.5" fill="white" stroke="#0D6EFD"/>
<path d="M250 49L244 45L244 53L250 49Z" fill="#5E5F65"/>
<path d="M234 49L240 53L240 45L234 49Z" fill="#5E5F65"/>
<rect x="61.5" y="31.5" width="34" height="34" rx="8.5" fill="white" stroke="#0D6EFD"/>
<path d="M87 49L81 45L81 53L87 49Z" fill="#5E5F65"/>
<path d="M71 49L77 53L77 45L71 49Z" fill="#5E5F65"/>
<path d="M68.6941 80.19C68.1141 80.5633 67.4574 80.75 66.7241 80.75C65.9241 80.75 65.2841 80.4967 64.8041 79.99C64.3441 79.5033 64.1141 78.8633 64.1141 78.07C64.1141 77.2367 64.3574 76.5833 64.8441 76.11C65.0574 75.9033 65.2874 75.7467 65.5341 75.64C65.7874 75.5333 66.2341 75.4033 66.8741 75.25C67.4541 75.11 67.8641 74.9467 68.1041 74.76C67.6441 73.9533 67.0907 73.55 66.4441 73.55C65.8974 73.55 65.3141 73.84 64.6941 74.42V73.31C65.2474 72.6967 65.8774 72.39 66.5841 72.39C67.1107 72.39 67.6207 72.58 68.1141 72.96C68.6074 73.34 69.0441 73.88 69.4241 74.58V75.08C69.2241 75.4267 68.9674 75.69 68.6541 75.87C68.3474 76.05 67.8574 76.22 67.1841 76.38C66.4707 76.5467 65.9941 76.7367 65.7541 76.95C65.4674 77.2167 65.3241 77.5933 65.3241 78.08C65.3241 79.0533 65.8341 79.54 66.8541 79.54C67.5074 79.54 68.1207 79.36 68.6941 79V80.19ZM66.8641 78.6C66.4841 78.6 66.2941 78.41 66.2941 78.03C66.2941 77.6567 66.4841 77.47 66.8641 77.47C67.2307 77.47 67.4141 77.6567 67.4141 78.03C67.4141 78.41 67.2307 78.6 66.8641 78.6ZM76.305 71.72H74.095V73C74.175 72.9667 74.285 72.95 74.425 72.95C75.1583 72.95 75.7283 73.1333 76.135 73.5C76.5217 73.8533 76.715 74.3367 76.715 74.95C76.715 75.5967 76.475 76.1333 75.995 76.56C75.575 76.9333 75.065 77.12 74.465 77.12C73.665 77.12 72.9683 76.83 72.375 76.25L72.915 75.42C73.4017 75.7867 73.8717 75.97 74.325 75.97C75.025 75.97 75.375 75.6567 75.375 75.03C75.375 74.33 74.925 73.98 74.025 73.98C73.7117 73.98 73.3017 74.0367 72.795 74.15V70.67H76.305V71.72ZM79.8957 70.55C80.669 70.55 81.289 70.92 81.7557 71.66C82.149 72.2733 82.3457 73.0033 82.3457 73.85C82.3457 74.87 82.0957 75.6867 81.5957 76.3C81.1557 76.8467 80.589 77.12 79.8957 77.12C79.1024 77.12 78.4824 76.7667 78.0357 76.06C77.6624 75.4733 77.4757 74.7367 77.4757 73.85C77.4757 72.8633 77.7224 72.0533 78.2157 71.42C78.6624 70.84 79.2224 70.55 79.8957 70.55ZM79.9157 71.67C79.1957 71.67 78.8357 72.3767 78.8357 73.79C78.8357 74.5033 78.939 75.0633 79.1457 75.47C79.3324 75.8367 79.579 76.02 79.8857 76.02C80.2257 76.02 80.4924 75.8233 80.6857 75.43C80.8857 75.03 80.9857 74.4833 80.9857 73.79C80.9857 72.3767 80.629 71.67 79.9157 71.67ZM85.5305 70.55C86.3038 70.55 86.9238 70.92 87.3905 71.66C87.7838 72.2733 87.9805 73.0033 87.9805 73.85C87.9805 74.87 87.7305 75.6867 87.2305 76.3C86.7905 76.8467 86.2238 77.12 85.5305 77.12C84.7371 77.12 84.1171 76.7667 83.6705 76.06C83.2971 75.4733 83.1105 74.7367 83.1105 73.85C83.1105 72.8633 83.3571 72.0533 83.8505 71.42C84.2971 70.84 84.8571 70.55 85.5305 70.55ZM85.5505 71.67C84.8305 71.67 84.4705 72.3767 84.4705 73.79C84.4705 74.5033 84.5738 75.0633 84.7805 75.47C84.9671 75.8367 85.2138 76.02 85.5205 76.02C85.8605 76.02 86.1271 75.8233 86.3205 75.43C86.5205 75.03 86.6205 74.4833 86.6205 73.79C86.6205 72.3767 86.2638 71.67 85.5505 71.67ZM91.1652 70.55C91.9386 70.55 92.5586 70.92 93.0252 71.66C93.4186 72.2733 93.6152 73.0033 93.6152 73.85C93.6152 74.87 93.3652 75.6867 92.8652 76.3C92.4252 76.8467 91.8586 77.12 91.1652 77.12C90.3719 77.12 89.7519 76.7667 89.3052 76.06C88.9319 75.4733 88.7452 74.7367 88.7452 73.85C88.7452 72.8633 88.9919 72.0533 89.4852 71.42C89.9319 70.84 90.4919 70.55 91.1652 70.55ZM91.1852 71.67C90.4652 71.67 90.1052 72.3767 90.1052 73.79C90.1052 74.5033 90.2086 75.0633 90.4152 75.47C90.6019 75.8367 90.8486 76.02 91.1552 76.02C91.4952 76.02 91.7619 75.8233 91.9552 75.43C92.1552 75.03 92.2552 74.4833 92.2552 73.79C92.2552 72.3767 91.8986 71.67 91.1852 71.67Z" fill="#333333"/>
<path d="M231.382 80.19C230.802 80.5633 230.145 80.75 229.412 80.75C228.612 80.75 227.972 80.4967 227.492 79.99C227.032 79.5033 226.802 78.8633 226.802 78.07C226.802 77.2367 227.045 76.5833 227.532 76.11C227.745 75.9033 227.975 75.7467 228.222 75.64C228.475 75.5333 228.922 75.4033 229.562 75.25C230.142 75.11 230.552 74.9467 230.792 74.76C230.332 73.9533 229.778 73.55 229.132 73.55C228.585 73.55 228.002 73.84 227.382 74.42V73.31C227.935 72.6967 228.565 72.39 229.272 72.39C229.798 72.39 230.308 72.58 230.802 72.96C231.295 73.34 231.732 73.88 232.112 74.58V75.08C231.912 75.4267 231.655 75.69 231.342 75.87C231.035 76.05 230.545 76.22 229.872 76.38C229.158 76.5467 228.682 76.7367 228.442 76.95C228.155 77.2167 228.012 77.5933 228.012 78.08C228.012 79.0533 228.522 79.54 229.542 79.54C230.195 79.54 230.808 79.36 231.382 79V80.19ZM229.552 78.6C229.172 78.6 228.982 78.41 228.982 78.03C228.982 77.6567 229.172 77.47 229.552 77.47C229.918 77.47 230.102 77.6567 230.102 78.03C230.102 78.41 229.918 78.6 229.552 78.6ZM238.403 73.78C239.276 74.0133 239.713 74.5533 239.713 75.4C239.713 75.98 239.466 76.4267 238.973 76.74C238.566 76.9933 238.063 77.12 237.463 77.12C236.763 77.12 236.203 76.9533 235.783 76.62C235.389 76.3133 235.193 75.9033 235.193 75.39C235.193 74.91 235.363 74.51 235.703 74.19C235.956 73.95 236.239 73.81 236.553 73.77C235.826 73.55 235.463 73.0867 235.463 72.38C235.463 71.78 235.696 71.31 236.163 70.97C236.536 70.69 236.993 70.55 237.533 70.55C238.146 70.55 238.649 70.7367 239.043 71.11C239.409 71.4633 239.593 71.91 239.593 72.45C239.593 72.7633 239.479 73.0433 239.253 73.29C239.033 73.5367 238.749 73.7 238.403 73.78ZM237.513 73.32C237.739 73.2533 237.926 73.13 238.073 72.95C238.219 72.7633 238.293 72.5667 238.293 72.36C238.293 72.12 238.223 71.9267 238.083 71.78C237.949 71.6333 237.776 71.56 237.563 71.56C237.316 71.56 237.116 71.6367 236.963 71.79C236.816 71.9367 236.743 72.1333 236.743 72.38C236.743 72.8333 236.999 73.1467 237.513 73.32ZM237.543 74.22C237.243 74.2933 237.003 74.43 236.823 74.63C236.643 74.8233 236.553 75.0467 236.553 75.3C236.553 75.5333 236.639 75.7267 236.813 75.88C236.986 76.0267 237.206 76.1 237.473 76.1C237.726 76.1 237.933 76.03 238.093 75.89C238.259 75.7433 238.343 75.5567 238.343 75.33C238.343 75.0767 238.266 74.8467 238.113 74.64C237.966 74.4333 237.776 74.2933 237.543 74.22ZM242.896 70.55C243.669 70.55 244.289 70.92 244.756 71.66C245.149 72.2733 245.346 73.0033 245.346 73.85C245.346 74.87 245.096 75.6867 244.596 76.3C244.156 76.8467 243.589 77.12 242.896 77.12C242.102 77.12 241.482 76.7667 241.036 76.06C240.662 75.4733 240.476 74.7367 240.476 73.85C240.476 72.8633 240.722 72.0533 241.216 71.42C241.662 70.84 242.222 70.55 242.896 70.55ZM242.916 71.67C242.196 71.67 241.836 72.3767 241.836 73.79C241.836 74.5033 241.939 75.0633 242.146 75.47C242.332 75.8367 242.579 76.02 242.886 76.02C243.226 76.02 243.492 75.8233 243.686 75.43C243.886 75.03 243.986 74.4833 243.986 73.79C243.986 72.3767 243.629 71.67 242.916 71.67ZM248.53 70.55C249.304 70.55 249.924 70.92 250.39 71.66C250.784 72.2733 250.98 73.0033 250.98 73.85C250.98 74.87 250.73 75.6867 250.23 76.3C249.79 76.8467 249.224 77.12 248.53 77.12C247.737 77.12 247.117 76.7667 246.67 76.06C246.297 75.4733 246.11 74.7367 246.11 73.85C246.11 72.8633 246.357 72.0533 246.85 71.42C247.297 70.84 247.857 70.55 248.53 70.55ZM248.55 71.67C247.83 71.67 247.47 72.3767 247.47 73.79C247.47 74.5033 247.574 75.0633 247.78 75.47C247.967 75.8367 248.214 76.02 248.52 76.02C248.86 76.02 249.127 75.8233 249.32 75.43C249.52 75.03 249.62 74.4833 249.62 73.79C249.62 72.3767 249.264 71.67 248.55 71.67ZM254.165 70.55C254.939 70.55 255.559 70.92 256.025 71.66C256.419 72.2733 256.615 73.0033 256.615 73.85C256.615 74.87 256.365 75.6867 255.865 76.3C255.425 76.8467 254.859 77.12 254.165 77.12C253.372 77.12 252.752 76.7667 252.305 76.06C251.932 75.4733 251.745 74.7367 251.745 73.85C251.745 72.8633 251.992 72.0533 252.485 71.42C252.932 70.84 253.492 70.55 254.165 70.55ZM254.185 71.67C253.465 71.67 253.105 72.3767 253.105 73.79C253.105 74.5033 253.209 75.0633 253.415 75.47C253.602 75.8367 253.849 76.02 254.155 76.02C254.495 76.02 254.762 75.8233 254.955 75.43C255.155 75.03 255.255 74.4833 255.255 73.79C255.255 72.3767 254.899 71.67 254.185 71.67Z" fill="#333333"/>
</svg>
