<svg width="246" height="124" viewBox="0 0 246 124" fill="none" xmlns="http://www.w3.org/2000/svg">
<g id="Rectangle 7836_layerstyle">
<g id="Group">
<path id="Vector" d="M234.259 113.713C234.359 108.808 234.508 104.646 234.657 104.447V104.398C234.757 104.2 235.453 104.051 237.592 104.051L237.642 109.105C237.642 111.929 237.692 115.397 237.791 119.411H245.999L245.651 122.631H234.06L234.259 113.713Z" fill="white"/>
<path id="Vector_2" d="M214.112 113.217C215.057 110.195 216.201 106.925 216.649 105.934V105.884C217.295 104.249 217.594 104.051 219.136 104.051C220.479 104.051 221.076 104.348 221.723 105.389C222.171 106.182 223.613 110.344 224.956 114.704C226.25 119.064 227.245 122.681 227.195 122.78C227.145 122.879 226.399 122.83 225.603 122.681C224.409 122.433 223.912 121.888 221.872 117.429L219.037 117.528C216.251 117.677 216.251 117.677 215.554 119.659C215.156 120.749 214.709 121.789 214.51 121.938C214.311 122.136 213.415 122.384 210.928 122.879L211.624 120.749C212.022 119.609 213.117 116.24 214.112 113.217Z" fill="white"/>
<path id="Vector_3" d="M217.992 111.731C218.29 110.641 218.539 109.452 218.44 109.154V109.105C218.39 108.808 218.589 108.51 218.887 108.51C219.136 108.51 219.733 109.7 220.131 111.087C220.529 112.524 220.877 113.862 220.877 114.06C220.877 114.307 220.081 114.506 219.136 114.555C218.191 114.654 217.395 114.456 217.395 114.208C217.395 113.911 217.644 112.821 217.992 111.731Z" fill="#0D6EFD"/>
<path id="Vector_4" d="M190.929 113.96C190.88 106.28 190.979 105.042 191.676 104.695C192.074 104.497 194.312 104.299 196.65 104.299C199.635 104.299 201.078 104.497 201.724 105.042C202.172 105.438 202.918 106.38 203.267 107.123C203.665 107.916 203.963 108.956 203.963 109.501C203.963 110.046 203.764 110.492 203.466 110.492C203.217 110.492 202.869 111.037 202.719 111.731C202.57 112.474 202.819 113.514 203.416 114.307C204.013 115.15 204.361 116.388 204.311 117.478C204.262 118.42 203.864 119.609 203.466 120.104C203.068 120.55 202.52 120.947 202.222 120.947C201.973 120.947 200.829 121.343 199.735 121.888C198.391 122.532 196.65 122.829 191.029 122.879L190.929 113.96Z" fill="white"/>
<g id="Vector_5">
<path d="M194.212 116.586C194.461 115.149 194.71 114.951 196.401 114.803C197.396 114.703 198.64 114.604 199.187 114.654C199.685 114.703 200.431 115.149 200.779 115.694C201.326 116.487 201.326 116.933 200.829 117.924C200.331 118.915 199.784 119.212 197.993 119.311C196.75 119.411 195.357 119.163 194.809 118.816C194.113 118.32 193.964 117.775 194.212 116.586Z" fill="#0D6EFD"/>
<path d="M194.362 110.888C194.312 110.244 194.312 109.154 194.411 108.411C194.561 107.37 194.909 107.024 195.655 107.024C196.252 107.024 197.595 107.222 198.64 107.42C199.784 107.618 200.58 108.114 200.729 108.659C200.879 109.105 200.779 109.897 200.53 110.393C200.232 110.839 199.635 111.235 199.137 111.285C198.64 111.285 197.396 111.483 196.401 111.632C194.71 111.929 194.511 111.879 194.362 110.888Z" fill="#0D6EFD"/>
</g>
<path id="Vector_6" d="M169.339 112.722C169.488 108.064 169.638 104.249 169.638 104.2V104.15C169.638 104.101 170.284 104.051 172.573 104.051L172.622 107.866C172.672 109.997 172.722 111.78 172.772 111.83C172.821 111.88 174.264 110.195 175.906 108.114C178.841 104.398 179.04 104.299 181.278 104.15C182.572 104.101 183.567 104.249 183.567 104.547C183.567 104.844 183.418 105.042 183.219 105.042C182.97 104.992 181.776 106.33 178.095 110.988L180.831 116.686C182.323 119.807 183.567 122.483 183.567 122.631C183.567 122.78 182.771 122.879 181.826 122.879C180.283 122.879 179.935 122.631 178.891 120.749C178.244 119.609 177.299 117.627 176.801 116.339C176.254 115.001 175.707 113.961 175.508 113.961C175.259 113.961 174.513 114.803 173.816 115.794C172.772 117.33 172.573 118.123 172.871 122.879H170.782C168.991 122.879 168.692 122.731 168.891 121.987C168.991 121.541 169.24 117.379 169.339 112.722Z" fill="white"/>
<path id="Vector_7" d="M149.639 111.483C150.584 108.609 151.579 105.785 151.778 105.191V105.141C152.127 104.299 152.574 104.051 153.967 104.051C155.31 104.051 155.907 104.348 156.654 105.389C157.151 106.182 158.046 108.312 158.594 110.245C159.141 112.177 160.186 115.744 160.932 118.172C161.628 120.6 162.126 122.681 162.076 122.78C161.976 122.879 161.181 122.83 160.285 122.681C159.041 122.433 158.643 122.086 158.395 120.996C158.245 120.253 157.798 119.163 157.4 118.519C156.803 117.627 156.256 117.429 151.231 117.429L150.336 119.857C149.589 122.086 149.341 122.334 147.898 122.483C147.003 122.582 146.256 122.582 146.256 122.483C146.256 122.433 146.605 121.095 147.052 119.51C147.5 117.974 148.644 114.357 149.639 111.483Z" fill="white"/>
<path id="Vector_8" d="M152.326 114.752C152.226 114.752 152.574 113.266 153.022 111.482L153.868 108.262L156.057 114.207L154.266 114.505C153.271 114.703 152.425 114.802 152.326 114.752Z" fill="#0D6EFD"/>
<path id="Vector_9" d="M125.96 106.281C125.86 105.736 125.91 104.992 126.059 104.695V104.646C126.258 104.2 128.099 104.051 139.292 104.051L139.541 105.29C139.69 105.983 139.69 106.727 139.541 107.024C139.392 107.272 138.198 107.618 134.317 108.015V122.879L132.974 123.077C132.178 123.176 131.283 123.077 130.984 122.83C130.487 122.483 130.387 120.6 130.586 115.199C130.835 108.064 130.835 108.015 129.741 107.767C129.094 107.668 128.049 107.47 127.353 107.42C126.557 107.321 126.059 106.925 125.96 106.281Z" fill="white"/>
<path id="Vector_10" d="M106.359 106.231C106.807 105.636 108.001 104.943 108.946 104.645C109.891 104.348 111.185 104.1 111.831 104.1C112.428 104.051 114.169 104.497 115.662 105.042C117.154 105.587 118.497 106.181 118.597 106.429C118.746 106.627 118.398 107.321 117.9 108.015C117.154 109.006 116.856 109.154 116.309 108.609C115.96 108.262 114.319 107.866 112.677 107.717C110.588 107.519 109.394 107.618 108.747 108.114C108.25 108.461 107.901 109.105 108.051 109.501C108.2 109.897 109.394 110.542 110.737 110.938C112.08 111.285 113.921 111.78 114.816 112.028C115.811 112.325 116.756 113.068 117.304 114.01C117.801 114.902 118.298 116.19 118.398 116.884C118.497 117.577 118.249 118.766 117.751 119.559C117.304 120.302 116.408 121.244 115.811 121.64C115.164 122.037 113.572 122.433 112.18 122.483C110.239 122.532 109.095 122.235 107.105 121.095C105.663 120.302 104.469 119.559 104.469 119.411C104.469 119.262 104.916 118.618 105.464 117.924C106.26 116.884 106.558 116.785 107.304 117.33C107.802 117.676 108.946 118.271 109.792 118.667C110.687 119.064 111.981 119.411 112.677 119.411C113.423 119.411 114.12 119.014 114.418 118.42C114.717 117.875 114.816 117.131 114.667 116.834C114.567 116.487 113.125 115.794 111.583 115.298C109.991 114.753 107.901 114.01 106.956 113.564C105.563 112.87 105.165 112.375 104.966 110.987C104.767 110.046 104.717 108.956 104.817 108.659C104.916 108.312 105.165 108.114 105.464 108.262C105.762 108.411 105.862 108.213 105.712 107.916C105.613 107.569 105.862 106.776 106.359 106.231Z" fill="white"/>
<path id="Vector_11" d="M54.3243 109.749C54.6228 107.024 54.9213 104.695 54.971 104.497C55.0705 104.348 55.966 104.249 56.9609 104.249C58.2212 104.282 58.901 104.547 59.0005 105.042C59.1 105.438 59.9955 108.461 63.0301 117.677L65.1195 111.731C66.3134 108.461 67.4576 105.488 67.7063 105.191C67.955 104.844 68.353 104.646 68.6515 104.794C68.95 104.943 69.149 104.893 69.149 104.695C69.149 104.447 69.6962 104.249 70.3927 104.2C71.4871 104.051 71.6861 104.249 71.8851 106.182C72.0343 107.321 72.3328 110.393 72.6313 112.97C72.88 115.546 73.1288 118.866 73.1288 120.303C73.1288 122.731 73.0293 122.879 71.7358 123.177C70.9896 123.325 70.2434 123.276 70.0444 123.028C69.8454 122.83 69.4972 120.501 69.348 117.924C69.149 115.348 68.8505 112.821 68.7013 112.326C68.5023 111.731 67.8058 113.316 66.6119 116.785C64.9205 121.839 64.7215 122.136 63.2788 122.532C62.1844 122.78 61.5874 122.681 61.3387 122.285C61.1397 121.938 60.1447 119.213 59.1 116.19C58.0553 113.217 57.2594 111.186 57.3091 111.731C57.3589 112.276 57.2594 114.902 57.0604 117.578C56.8117 120.65 56.4634 122.483 56.1152 122.681C55.767 122.879 54.971 122.879 54.3741 122.681C53.2796 122.384 53.2299 122.235 53.4786 118.569C53.6278 116.438 54.0258 112.474 54.3243 109.749Z" fill="white"/>
<path id="Vector_12" d="M19.9488 113.812C19.9985 109.154 20.098 104.992 20.2473 104.695V104.646C20.3965 104.348 21.1427 104.051 23.3813 104.051V119.411H31.8384V122.631L26.9631 122.78C24.3265 122.83 21.6402 122.78 21.0432 122.631C19.899 122.384 19.899 122.334 19.9488 113.812Z" fill="white"/>
<path id="Vector_13" d="M0 114.802C0 110.69 0.0994944 106.577 0.248736 105.686L0.497472 104.15L12.586 104.298L12.8348 107.767L3.48231 107.023V111.978L5.72093 111.829C6.96461 111.78 7.95955 111.879 7.95955 112.077C7.95955 112.325 8.0093 112.969 8.05905 113.564C8.15854 114.555 7.90981 114.753 5.96967 114.951C3.73104 115.199 3.73104 115.199 3.48231 119.41H7.95955C11.7901 119.41 12.4866 119.559 12.6855 120.253C12.8348 120.748 12.785 121.541 12.586 122.086C12.2378 122.879 11.7901 122.978 8.45703 122.73C6.41739 122.581 3.68129 122.433 0 122.383V114.802Z" fill="white"/>
<path id="Vector_14" d="M87.5546 104.546C87.5546 104.248 88.0521 103.951 88.6988 103.852H88.6491C89.2958 103.802 90.241 103.802 90.7882 103.902C91.3354 104.05 92.5791 104.744 93.5243 105.537C94.4695 106.28 95.7629 107.865 96.4096 109.055C97.0066 110.244 97.5041 112.077 97.5041 113.068C97.5041 114.108 97.1558 115.793 96.7081 116.784C96.3101 117.824 95.4644 119.212 94.8675 119.806C94.2705 120.451 92.8776 121.441 91.7831 121.987C90.3405 122.73 89.2958 122.928 87.9029 122.68C86.9079 122.532 85.1668 121.788 84.0226 120.996C82.7789 120.203 81.585 118.815 80.9382 117.428C80.3413 116.189 79.8936 114.208 79.8936 112.969C79.8936 111.334 80.2915 110.194 81.386 108.609C82.1819 107.419 83.5748 106.131 84.4206 105.735C85.316 105.388 86.4104 105.041 86.8084 105.041C87.2064 105.041 87.5546 104.793 87.5546 104.546Z" fill="white"/>
<path id="Vector_15" d="M84.2721 109.996C84.9685 109.005 86.063 108.113 86.9087 107.964C87.6549 107.766 88.4508 107.618 88.6996 107.568C88.8986 107.568 89.8437 107.865 90.7889 108.262C92.0326 108.807 92.8286 109.649 93.525 111.135C94.0723 112.275 94.52 113.563 94.52 113.96C94.52 114.356 93.8733 115.595 93.0276 116.685C92.0326 117.923 90.7889 118.865 89.6448 119.212C88.3016 119.608 87.4061 119.608 86.3117 119.212C85.5157 118.914 84.471 118.023 83.9736 117.18C83.4761 116.388 83.0781 114.802 83.0781 113.712C83.0781 112.374 83.4761 111.135 84.2721 109.996Z" fill="#0D6EFD"/>
<path id="Vector_16" d="M87.5553 77.7907C86.8588 77.4439 86.7096 77.097 87.0081 76.7006V76.6511C87.3563 76.2052 89.6447 76.0565 95.6143 76.0565C100.042 76.1061 104.071 76.3043 104.469 76.5024C105.116 76.8988 105.066 77.0475 104.221 77.642C103.474 78.1375 101.286 78.2862 95.9128 78.2862C91.8335 78.2862 88.1025 78.0384 87.5553 77.7907Z" fill="white"/>
<path id="Vector_17" d="M86.9583 49.8949C86.9085 49.4985 87.0578 49.0526 87.3065 48.904C87.5552 48.7058 91.933 48.5571 97.1067 48.5571C104.121 48.5571 106.509 48.7058 106.658 49.2013C106.807 49.4985 106.758 49.9445 106.608 50.1922C106.409 50.3904 101.982 50.539 96.659 50.539C89.0476 50.539 87.0578 50.3904 86.9583 49.8949Z" fill="white"/>
<path id="Vector_18" d="M125.363 44.8409C125.612 44.1472 126.457 43.2553 127.253 42.8589H127.203C128.298 42.3139 130.686 42.1653 146.754 42.1157L148.247 43.6022C149.54 44.8904 149.739 45.4354 149.739 50.5389H155.311C160.385 50.4893 161.081 50.6379 162.673 51.6785C163.618 52.273 164.713 53.3631 165.011 54.0072C165.459 54.8991 165.658 59.3088 165.658 69.8625C165.708 83.7854 165.658 84.5287 164.663 85.8665C164.116 86.6097 162.972 87.5511 162.176 87.9475C160.932 88.5916 157.052 88.6907 136.904 88.6907C114.916 88.6907 113.075 88.6411 111.682 87.7988C110.886 87.3033 109.792 86.0646 109.294 85.0737C108.548 83.4882 108.449 81.5558 108.449 69.6148C108.449 58.6152 108.598 55.6423 109.195 54.2549C109.593 53.3135 110.687 52.0748 111.533 51.5298C112.926 50.6875 114.07 50.5389 124.865 50.5389V48.3092C124.865 47.0705 125.064 45.5345 125.363 44.8409Z" fill="white"/>
<path id="Vector_19" d="M111.185 54.5028C111.682 53.5614 112.528 52.8677 113.573 52.5704H113.523C114.418 52.3227 125.114 52.0749 137.302 52.0749C157.45 52.0254 159.589 52.1245 161.181 52.9172C162.126 53.3632 163.171 54.3046 163.519 54.9983C163.966 55.8901 164.165 59.8539 164.165 69.3671C164.165 80.9118 164.066 82.6955 163.27 84.2315C162.822 85.1729 161.877 86.2134 161.181 86.5602C160.235 87.0557 154.415 87.2043 137.551 87.2043C123.721 87.2043 114.567 87.0062 113.523 86.7089C112.528 86.4116 111.632 85.6684 111.185 84.727C110.588 83.5378 110.438 80.7136 110.438 69.6149C110.438 58.5161 110.588 55.6919 111.185 54.5028Z" fill="#0D6EFD"/>
<g id="Vector_20">
<path d="M146.655 77.1458C146.605 75.9566 146.755 74.817 147.003 74.6684C147.252 74.4702 148.048 74.3215 148.844 74.3215C149.59 74.3215 150.585 74.4206 150.983 74.5693C151.481 74.7179 151.729 75.5107 151.729 79.2763H146.755L146.655 77.1458Z" fill="white"/>
<path d="M144.814 70.9027C144.715 69.4658 144.765 67.9299 144.964 67.5335C145.212 67.038 146.108 66.8894 151.481 67.1371V73.5783H145.013L144.814 70.9027Z" fill="white"/>
</g>
<path id="Vector_21" d="M148.246 71.8451C146.903 71.8451 146.754 71.6964 146.754 70.3586C146.754 69.0208 146.903 68.8722 148.246 68.8722C149.589 68.8722 149.739 69.0208 149.739 70.3586C149.739 71.6964 149.589 71.8451 148.246 71.8451Z" fill="#0D6EFD"/>
<g id="Vector_22">
<path d="M137.402 69.862C137.302 68.9206 137.402 67.8305 137.551 67.4837C137.75 67.0377 138.596 66.8891 142.526 67.1368V71.5961H140.038C137.551 71.5961 137.551 71.5961 137.402 69.862Z" fill="white"/>
<path d="M137.402 62.2316C137.302 60.3488 137.352 58.5155 137.501 58.1191C137.75 57.5741 139.193 57.475 151.48 57.7228V65.6504H137.551L137.402 62.2316Z" fill="white"/>
</g>
<path id="Vector_23" d="M139.69 63.6685C139.442 63.5198 139.292 62.5289 139.292 61.4388V59.4569H150.237V61.6866C150.237 63.8171 150.187 63.9162 148.744 63.9162C147.401 63.9162 147.302 63.7676 147.501 62.6775C147.7 61.7361 147.551 61.4388 146.904 61.4388C146.406 61.4388 145.561 61.9838 145.013 62.6775C144.466 63.3712 143.819 63.9658 143.521 63.9658C143.223 63.9658 143.521 63.4207 144.118 62.8262C144.765 62.182 145.262 61.3893 145.262 61.092C145.262 60.7452 144.814 60.4479 144.317 60.4479C143.77 60.4479 142.626 61.2406 141.68 62.182C140.785 63.1234 139.889 63.7676 139.69 63.6685Z" fill="#0D6EFD"/>
<g id="Vector_24">
<path d="M155.958 84.727C155.311 84.727 155.212 82.646 155.212 69.1194C155.212 55.5928 155.311 53.5118 155.958 53.5118C156.605 53.5118 156.704 55.5928 156.704 69.1194C156.704 82.646 156.605 84.727 155.958 84.727Z" fill="white"/>
<path d="M116.807 69.4662C116.757 61.0431 116.906 54.0073 117.155 53.8091C117.404 53.6605 117.802 53.5614 118.1 53.6605C118.498 53.8091 118.648 58.7639 118.648 69.169C118.648 83.3396 118.598 84.4792 117.752 84.5783C116.956 84.727 116.906 83.6865 116.807 69.4662Z" fill="white"/>
</g>
<path id="Vector_25" fill-rule="evenodd" clip-rule="evenodd" d="M127.901 44.841C126.906 45.5347 126.756 46.0301 126.806 48.1112C126.856 50.1426 127.005 50.539 127.702 50.3904C128.348 50.3408 128.647 49.7462 128.697 48.4084C128.796 47.1697 129.194 46.3274 129.94 45.832C130.836 45.2374 132.577 45.0887 137.402 45.0887C141.233 45.0887 144.218 45.3365 144.864 45.6338C145.511 45.9806 146.158 46.4761 146.357 46.7734C146.556 47.0706 146.755 48.0616 146.755 48.9535C146.755 50.0435 147.004 50.539 147.501 50.539C148.048 50.539 148.247 49.994 148.247 48.4084C148.247 47.2688 147.899 45.832 147.501 45.2374C146.755 44.1473 146.506 44.0978 137.9 44.0978C130.736 44.0978 128.896 44.2464 127.901 44.841ZM130.587 47.3679C130.388 47.5661 130.189 48.3589 130.239 49.1517L130.338 50.539H144.765L144.516 47.3184C134.069 47.1202 130.836 47.2193 130.587 47.3679Z" fill="#0D6EFD"/>
<path id="Vector_26" d="M139.292 29.9763C141.083 28.7872 143.421 26.9539 144.516 25.8143C145.56 24.7242 146.854 23.7828 147.351 23.7828C147.849 23.7828 148.247 24.0801 148.247 24.427C148.247 24.7242 146.804 26.4089 145.013 28.143C142.824 30.2241 140.486 31.8591 137.651 33.1969C135.412 34.287 132.228 35.5257 130.586 35.9221C128.796 36.368 125.363 36.6653 121.98 36.6653C116.956 36.6653 116.409 36.5662 116.558 35.823C116.657 35.0302 117.453 34.8816 122.627 34.6338C125.91 34.4852 129.592 34.0888 130.835 33.742C132.079 33.4447 133.77 32.8996 134.566 32.6024C135.362 32.3051 137.501 31.1159 139.292 29.9763Z" fill="white"/>
<path id="Vector_27" d="M89.6442 16.3014C89.9924 15.7564 90.6889 15.1122 91.2858 14.8645C91.8331 14.6663 95.2159 14.5672 98.7479 14.6663C104.071 14.815 105.364 15.0132 106.111 15.7068C106.906 16.4996 107.006 17.6887 106.956 39.6384H109.444C110.787 39.6384 112.627 39.9853 113.423 40.3816C114.219 40.778 115.264 41.769 115.662 42.6113C116.06 43.4041 116.358 44.94 116.259 45.931C116.209 47.2192 115.911 47.8138 115.413 47.8138C114.916 47.8138 114.617 47.1697 114.518 45.8319C114.418 44.6428 113.921 43.4041 113.274 42.7104C112.18 41.6203 112.13 41.5708 98.2505 41.6203C84.5202 41.6203 84.3212 41.6699 82.0329 43.85V62.4304C82.0329 80.3667 82.0826 81.0604 84.0725 83.736H94.0219C99.4941 83.736 104.32 83.8351 104.718 83.9837C105.116 84.1324 105.464 84.5783 105.464 84.9747C105.464 85.6188 104.469 85.7179 93.2757 85.7179L92.3803 87.2043C91.9326 88.0467 91.0371 88.8394 90.3904 88.9881C89.7934 89.1367 88.699 89.1367 87.903 88.9881C87.0573 88.7899 86.2614 88.1457 85.8136 87.2043C85.4157 86.4116 84.6695 85.6188 84.172 85.4702C83.7243 85.3711 82.6298 84.5783 80.3415 82.2L80.043 44.3455L81.1872 42.6113C81.8339 41.6699 82.9283 40.5798 83.575 40.2825C84.2715 39.9357 85.7639 39.6384 89.0472 39.6384V28.4902C89.0472 20.6616 89.2462 17.0446 89.6442 16.3014Z" fill="white"/>
<g id="Vector_28">
<path d="M88.3015 87.4518C87.9035 87.3031 87.5055 86.9068 87.5055 86.5104C87.4392 86.0479 87.9201 85.8497 88.9482 85.9158C89.7939 85.9158 90.5899 86.114 90.7391 86.3122C90.8884 86.5599 90.5899 86.9068 90.0426 87.204C89.4954 87.4518 88.6995 87.6004 88.3015 87.4518Z" fill="#0D6EFD"/>
<path d="M93.525 39.6381V30.7195V21.8009H102.479V39.6381H93.525Z" fill="#0D6EFD"/>
<path d="M90.9381 18.3821C90.8884 17.4902 91.1371 16.8461 91.5848 16.6975C91.933 16.5488 94.7686 16.4002 97.7535 16.4002C101.435 16.3506 103.524 16.5488 104.121 16.9452C104.668 17.3416 104.967 18.0353 104.867 18.5803C104.718 19.5217 104.27 19.5712 91.0376 19.819L90.9381 18.3821Z" fill="#0D6EFD"/>
</g>
<path id="Vector_29" d="M161.181 14.7648C160.385 12.8819 159.789 11.1973 159.938 10.9C160.137 10.6027 160.435 10.4045 160.684 10.4045C160.982 10.4045 162.077 12.1883 163.171 14.3684C164.266 16.5485 165.161 18.8772 165.161 19.5709C165.161 20.2646 165.062 21.1564 164.912 21.5528C164.763 21.9492 164.266 22.296 163.818 22.296C163.321 22.296 161.679 20.7105 160.087 18.5799C158.495 16.5485 157.202 14.6657 157.202 14.3684C157.202 14.0711 157.6 13.8729 158.047 13.8729C158.545 13.8729 159.689 14.8638 160.535 16.1025C161.43 17.3412 162.276 18.2826 162.425 18.2331C162.574 18.134 162.027 16.598 161.181 14.7648Z" fill="white"/>
<path id="Vector_30" d="M157.051 3.96395C158.046 2.57661 159.34 1.13972 159.887 0.74334C160.484 0.346957 161.33 0.00012207 161.827 0.00012207C162.275 0.00012207 163.021 0.346957 163.419 0.74334C163.817 1.13972 164.165 1.68475 164.165 1.98204C164.165 2.27932 163.916 3.07209 163.618 3.8153C163.32 4.60807 160.981 8.17551 158.395 11.7925C153.718 18.2833 153.718 18.3328 154.017 20.6616C154.266 22.5444 154.166 23.1885 153.519 23.6344C152.972 24.0804 152.425 24.1299 151.878 23.8326C151.38 23.5849 150.286 22.693 149.49 21.8507C148.147 20.5129 148.097 20.3147 148.893 19.9679C149.49 19.6706 150.137 19.9679 152.375 22.0489L152.027 20.1661C151.778 18.531 151.977 17.986 154.166 14.9636C155.459 13.1303 157.847 9.81059 159.389 7.58094C160.932 5.30174 162.175 3.12164 162.175 2.72525C162.175 2.13068 161.976 2.08113 161.18 2.47751C160.633 2.7748 160.185 3.12164 160.185 3.31983C160.185 3.56757 159.24 4.75671 155.957 8.3737L146.007 8.52235L149.987 9.56285C152.873 10.3556 153.967 10.9006 154.067 11.5448C154.166 12.1393 153.868 12.3871 153.121 12.3375C152.475 12.3375 150.087 11.8421 147.798 11.2475C145.311 10.6034 143.421 9.81059 143.072 9.31511C142.674 8.67099 142.674 8.17551 143.072 7.58094C143.52 6.83772 144.515 6.68908 155.211 6.44134L157.051 3.96395Z" fill="white"/>
</g>
</g>
</svg>
