<svg width="14" height="14" viewBox="0 0 14 14" fill="none" xmlns="http://www.w3.org/2000/svg">
<path d="M6.53626 1.15542C6.70421 0.73719 7.29628 0.73719 7.46423 1.15542L8.95227 4.86097C9.02379 5.03907 9.19095 5.16051 9.38243 5.1735L13.3664 5.44363C13.8161 5.47412 13.9991 6.03721 13.6532 6.32619L10.5889 8.88647C10.4416 9.00953 10.3777 9.20603 10.4245 9.39216L11.3988 13.2647C11.5087 13.7017 11.0297 14.0497 10.648 13.8101L7.2661 11.6869C7.10355 11.5849 6.89694 11.5849 6.73439 11.6869L3.35248 13.8101C2.97077 14.0497 2.49177 13.7017 2.60173 13.2647L3.57594 9.39216C3.62277 9.20603 3.55892 9.00953 3.41163 8.88647L0.347286 6.32619C0.00142097 6.03721 0.184381 5.47412 0.634046 5.44363L4.61805 5.1735C4.80954 5.16051 4.9767 5.03907 5.04822 4.86097L6.53626 1.15542Z" fill="#EAC92C"/>
</svg>
