<svg width="20" height="22" viewBox="0 0 20 22" fill="none" xmlns="http://www.w3.org/2000/svg">
<path fill-rule="evenodd" clip-rule="evenodd" d="M8.94393 0.25H11.0559C12.8939 0.25 14.3499 0.25 15.4889 0.403C16.6609 0.561 17.6099 0.893 18.3589 1.641C19.1069 2.39 19.4389 3.339 19.5969 4.511C19.7219 5.439 19.7449 6.578 19.7489 7.961C19.7502 7.98532 19.7502 8.00968 19.7489 8.034L19.7499 8.944V12.056C19.7499 13.894 19.7499 15.35 19.5969 16.489C19.4389 17.661 19.1069 18.61 18.3589 19.359C17.8989 19.818 17.3649 20.12 16.7499 20.322V21C16.7499 21.1989 16.6709 21.3897 16.5303 21.5303C16.3896 21.671 16.1988 21.75 15.9999 21.75C15.801 21.75 15.6103 21.671 15.4696 21.5303C15.3289 21.3897 15.2499 21.1989 15.2499 21V20.626C14.1479 20.75 12.7679 20.75 11.0559 20.75H8.94393C7.23193 20.75 5.85193 20.75 4.74993 20.626V21C4.74993 21.1989 4.67091 21.3897 4.53026 21.5303C4.38961 21.671 4.19884 21.75 3.99993 21.75C3.80102 21.75 3.61025 21.671 3.4696 21.5303C3.32895 21.3897 3.24993 21.1989 3.24993 21V20.322C2.63493 20.12 2.09993 19.818 1.64093 19.359C0.89293 18.61 0.56093 17.661 0.40293 16.489C0.24993 15.349 0.24993 13.894 0.24993 12.056V8.034C0.249138 8.01 0.249471 7.98597 0.25093 7.962C0.25493 6.578 0.27793 5.439 0.40293 4.511C0.56093 3.339 0.89293 2.39 1.64093 1.641C2.38993 0.893 3.33893 0.561 4.51093 0.403C5.65093 0.25 7.10593 0.25 8.94393 0.25ZM1.74993 8.75V12C1.74993 13.907 1.75193 15.262 1.88993 16.29C2.02493 17.295 2.27893 17.875 2.70193 18.298C3.12493 18.721 3.70493 18.975 4.71093 19.11C5.73893 19.248 7.09293 19.25 8.99993 19.25H10.9999C12.9069 19.25 14.2619 19.248 15.2899 19.11C16.2949 18.975 16.8749 18.721 17.2979 18.298C17.7209 17.875 17.9749 17.295 18.1099 16.289C18.2479 15.262 18.2499 13.907 18.2499 12V8.75H1.74993ZM18.2439 7.25H1.75593C1.76593 6.216 1.79793 5.392 1.88993 4.71C2.02493 3.705 2.27893 3.125 2.70193 2.702C3.12493 2.279 3.70493 2.025 4.71093 1.89C5.73893 1.752 7.09293 1.75 8.99993 1.75H10.9999C12.9069 1.75 14.2619 1.752 15.2899 1.89C16.2949 2.025 16.8749 2.279 17.2979 2.702C17.7209 3.125 17.9749 3.705 18.1099 4.711C18.2019 5.391 18.2329 6.216 18.2439 7.25ZM3.74993 4.5C3.74993 4.30109 3.82895 4.11032 3.9696 3.96967C4.11025 3.82902 4.30102 3.75 4.49993 3.75H7.49993C7.69884 3.75 7.88961 3.82902 8.03026 3.96967C8.17091 4.11032 8.24993 4.30109 8.24993 4.5C8.24993 4.69891 8.17091 4.88968 8.03026 5.03033C7.88961 5.17098 7.69884 5.25 7.49993 5.25H4.49993C4.30102 5.25 4.11025 5.17098 3.9696 5.03033C3.82895 4.88968 3.74993 4.69891 3.74993 4.5ZM9.99993 11.75C9.40319 11.75 8.8309 11.9871 8.40894 12.409C7.98698 12.831 7.74993 13.4033 7.74993 14C7.74993 14.5967 7.98698 15.169 8.40894 15.591C8.8309 16.0129 9.40319 16.25 9.99993 16.25C10.5967 16.25 11.169 16.0129 11.5909 15.591C12.0129 15.169 12.2499 14.5967 12.2499 14C12.2499 13.4033 12.0129 12.831 11.5909 12.409C11.169 11.9871 10.5967 11.75 9.99993 11.75ZM6.24993 14C6.24993 13.0054 6.64502 12.0516 7.34828 11.3483C8.05154 10.6451 9.00537 10.25 9.99993 10.25C10.9945 10.25 11.9483 10.6451 12.6516 11.3483C13.3548 12.0516 13.7499 13.0054 13.7499 14C13.7499 14.9946 13.3548 15.9484 12.6516 16.6517C11.9483 17.3549 10.9945 17.75 9.99993 17.75C9.00537 17.75 8.05154 17.3549 7.34828 16.6517C6.64502 15.9484 6.24993 14.9946 6.24993 14Z" fill="#0D6EFD"/>
<path d="M13.5 4.5C13.5 4.76522 13.3946 5.01957 13.2071 5.20711C13.0196 5.39464 12.7652 5.5 12.5 5.5C12.2348 5.5 11.9804 5.39464 11.7929 5.20711C11.6054 5.01957 11.5 4.76522 11.5 4.5C11.5 4.23478 11.6054 3.98043 11.7929 3.79289C11.9804 3.60536 12.2348 3.5 12.5 3.5C12.7652 3.5 13.0196 3.60536 13.2071 3.79289C13.3946 3.98043 13.5 4.23478 13.5 4.5ZM16.5 4.5C16.5 4.76522 16.3946 5.01957 16.2071 5.20711C16.0196 5.39464 15.7652 5.5 15.5 5.5C15.2348 5.5 14.9804 5.39464 14.7929 5.20711C14.6054 5.01957 14.5 4.76522 14.5 4.5C14.5 4.23478 14.6054 3.98043 14.7929 3.79289C14.9804 3.60536 15.2348 3.5 15.5 3.5C15.7652 3.5 16.0196 3.60536 16.2071 3.79289C16.3946 3.98043 16.5 4.23478 16.5 4.5Z" fill="#0D6EFD"/>
</svg>
