<svg width="24" height="16" viewBox="0 0 24 16" fill="none" xmlns="http://www.w3.org/2000/svg">
<path d="M23.0761 5.17252C23.1516 5.09927 23.2102 5.01054 23.2481 4.91244C23.2859 4.81434 23.302 4.7092 23.2953 4.60428C23.2886 4.49935 23.2592 4.39712 23.2092 4.30463C23.1592 4.21214 23.0898 4.13159 23.0056 4.06852C19.8077 1.74344 15.954 0.493901 12.0001 0.500022C7.88864 0.500022 4.08464 1.82302 0.994638 4.06852C0.910405 4.13147 0.84082 4.21193 0.790676 4.30436C0.740533 4.39679 0.711022 4.49899 0.704179 4.60393C0.697336 4.70886 0.713322 4.81403 0.751035 4.91219C0.788749 5.01035 0.847295 5.09917 0.922638 5.17252C1.05373 5.30164 1.22639 5.38005 1.40988 5.39378C1.59337 5.40752 1.77578 5.35569 1.92464 5.24752C4.85735 3.131 8.38345 1.99448 12.0001 2.00002C15.7606 2.00002 19.2406 3.20302 22.0741 5.24602C22.3816 5.46802 22.8091 5.44102 23.0761 5.17252Z" fill="#0D6EFD"/>
<path d="M19.8438 8.40652C19.9211 8.33194 19.9808 8.24109 20.0186 8.14055C20.0564 8.04001 20.0713 7.93232 20.0622 7.8253C20.0532 7.71829 20.0204 7.61463 19.9663 7.52186C19.9121 7.4291 19.838 7.34956 19.7493 7.28902C17.4429 5.79081 14.7506 4.99553 12.0003 5.00002C9.14281 5.00002 6.48031 5.84002 4.25131 7.28902C4.16214 7.3492 4.08759 7.4286 4.03313 7.52138C3.97868 7.61416 3.94571 7.71796 3.93664 7.82515C3.92758 7.93235 3.94265 8.04022 3.98075 8.14082C4.01885 8.24143 4.07901 8.33222 4.15681 8.40652C4.28462 8.53126 4.45103 8.60885 4.62874 8.62657C4.80644 8.64428 4.9849 8.60107 5.13481 8.50402C7.18385 7.19161 9.56701 6.49597 12.0003 6.50002C14.4331 6.49626 16.8157 7.19188 18.8643 8.50402C19.1733 8.70202 19.5843 8.66602 19.8438 8.40652ZM16.5693 11.681C16.9083 11.342 16.8468 10.7735 16.4193 10.556C15.0506 9.85949 13.5361 9.49758 12.0003 9.50002C10.4103 9.50002 8.90731 9.88102 7.58131 10.556C7.15381 10.7735 7.09231 11.342 7.43131 11.681L7.45381 11.7035C7.69381 11.9435 8.06431 11.9885 8.37031 11.8385C9.50015 11.2848 10.7421 10.9979 12.0003 11C13.3023 11 14.5353 11.3015 15.6303 11.84C15.9348 11.99 16.3053 11.945 16.5453 11.7035L16.5693 11.681ZM13.5903 14.66C13.8843 14.366 13.8873 13.88 13.5303 13.67C13.0675 13.3946 12.5389 13.2494 12.0003 13.25C11.4618 13.2494 10.9331 13.3946 10.4703 13.67C10.1133 13.88 10.1163 14.366 10.4103 14.66L11.4693 15.719C11.61 15.8596 11.8007 15.9386 11.9996 15.9386C12.1984 15.9386 12.3892 15.8596 12.5298 15.719L13.5903 14.66Z" fill="#0D6EFD"/>
</svg>
