<svg width="18" height="18" viewBox="0 0 18 18" fill="none" xmlns="http://www.w3.org/2000/svg">
<path d="M17 9C17 13.4183 13.4183 17 9 17M17 9C17 4.58172 13.4183 1 9 1M17 9C17 7.67452 13.4183 6.6 9 6.6C4.58172 6.6 1 7.67452 1 9M17 9C17 10.3255 13.4183 11.4 9 11.4C4.58172 11.4 1 10.3255 1 9M9 17C4.58172 17 1 13.4183 1 9M9 17C10.7673 17 12.2 13.4183 12.2 9C12.2 4.58172 10.7673 1 9 1M9 17C7.23269 17 5.8 13.4183 5.8 9C5.8 4.58172 7.23269 1 9 1M1 9C1 4.58172 4.58172 1 9 1" stroke="#828282" stroke-width="1.5"/>
</svg>
